<mxfile host="Electron" agent="Mozilla/5.0 (X11; Linux x86_64) AppleWebKit/537.36 (KHTML, like Gecko) draw.io/26.2.2 Chrome/134.0.6998.178 Electron/35.1.2 Safari/537.36" version="26.2.2">
  <diagram name="Page-1" id="e56a1550-8fbb-45ad-956c-1786394a9013">
    <mxGraphModel dx="2127" dy="1555" grid="1" gridSize="10" guides="1" tooltips="1" connect="1" arrows="0" fold="1" page="1" pageScale="1" pageWidth="1100" pageHeight="850" background="none" math="0" shadow="0">
      <root>
        <mxCell id="0" />
        <mxCell id="1" parent="0" />
        <mxCell id="i0Z8oCs2JBzdhcKXwgO1-357" style="edgeStyle=orthogonalEdgeStyle;rounded=0;orthogonalLoop=1;jettySize=auto;html=1;exitX=0.5;exitY=1;exitDx=0;exitDy=0;entryX=0.5;entryY=0;entryDx=0;entryDy=0;shape=link;" parent="1" source="i0Z8oCs2JBzdhcKXwgO1-1" target="i0Z8oCs2JBzdhcKXwgO1-23" edge="1">
          <mxGeometry relative="1" as="geometry" />
        </mxCell>
        <mxCell id="i0Z8oCs2JBzdhcKXwgO1-361" value="1..N" style="edgeLabel;html=1;align=center;verticalAlign=middle;resizable=0;points=[];" parent="i0Z8oCs2JBzdhcKXwgO1-357" vertex="1" connectable="0">
          <mxGeometry x="-0.04" y="-1" relative="1" as="geometry">
            <mxPoint as="offset" />
          </mxGeometry>
        </mxCell>
        <mxCell id="i0Z8oCs2JBzdhcKXwgO1-1" value="Person" style="whiteSpace=wrap;html=1;align=center;" parent="1" vertex="1">
          <mxGeometry x="528.75" y="-160" width="100" height="40" as="geometry" />
        </mxCell>
        <mxCell id="i0Z8oCs2JBzdhcKXwgO1-2" value="name" style="ellipse;whiteSpace=wrap;html=1;align=center;" parent="1" vertex="1">
          <mxGeometry x="318.5" y="-120" width="100" height="40" as="geometry" />
        </mxCell>
        <mxCell id="i0Z8oCs2JBzdhcKXwgO1-3" value="&lt;u&gt;DV&lt;/u&gt;" style="ellipse;whiteSpace=wrap;html=1;align=center;" parent="1" vertex="1">
          <mxGeometry x="318.5" y="-160" width="100" height="40" as="geometry" />
        </mxCell>
        <mxCell id="i0Z8oCs2JBzdhcKXwgO1-4" value="RUN" style="ellipse;whiteSpace=wrap;html=1;align=center;fontStyle=4;" parent="1" vertex="1">
          <mxGeometry x="318.5" y="-200" width="100" height="40" as="geometry" />
        </mxCell>
        <mxCell id="i0Z8oCs2JBzdhcKXwgO1-356" style="edgeStyle=orthogonalEdgeStyle;rounded=0;orthogonalLoop=1;jettySize=auto;html=1;exitX=0.5;exitY=0;exitDx=0;exitDy=0;entryX=0.5;entryY=1;entryDx=0;entryDy=0;shape=link;" parent="1" source="i0Z8oCs2JBzdhcKXwgO1-10" target="i0Z8oCs2JBzdhcKXwgO1-23" edge="1">
          <mxGeometry relative="1" as="geometry" />
        </mxCell>
        <mxCell id="i0Z8oCs2JBzdhcKXwgO1-360" value="1..1" style="edgeLabel;html=1;align=center;verticalAlign=middle;resizable=0;points=[];" parent="i0Z8oCs2JBzdhcKXwgO1-356" vertex="1" connectable="0">
          <mxGeometry x="0.0067" y="-1" relative="1" as="geometry">
            <mxPoint as="offset" />
          </mxGeometry>
        </mxCell>
        <mxCell id="i0Z8oCs2JBzdhcKXwgO1-10" value="Account" style="whiteSpace=wrap;html=1;align=center;" parent="1" vertex="1">
          <mxGeometry x="520" width="117.5" height="40" as="geometry" />
        </mxCell>
        <mxCell id="i0Z8oCs2JBzdhcKXwgO1-11" value="&lt;u&gt;email&lt;/u&gt;" style="ellipse;whiteSpace=wrap;html=1;align=center;" parent="1" vertex="1">
          <mxGeometry x="318.5" y="-60" width="100" height="40" as="geometry" />
        </mxCell>
        <mxCell id="i0Z8oCs2JBzdhcKXwgO1-15" value="password" style="ellipse;whiteSpace=wrap;html=1;align=center;" parent="1" vertex="1">
          <mxGeometry x="318.5" y="-20" width="100" height="40" as="geometry" />
        </mxCell>
        <mxCell id="i0Z8oCs2JBzdhcKXwgO1-16" value="username" style="ellipse;whiteSpace=wrap;html=1;align=center;" parent="1" vertex="1">
          <mxGeometry x="318.5" y="20" width="100" height="40" as="geometry" />
        </mxCell>
        <mxCell id="i0Z8oCs2JBzdhcKXwgO1-17" value="phone" style="ellipse;whiteSpace=wrap;html=1;align=center;" parent="1" vertex="1">
          <mxGeometry x="318.5" y="60" width="100" height="40" as="geometry" />
        </mxCell>
        <mxCell id="i0Z8oCs2JBzdhcKXwgO1-23" value="has" style="shape=rhombus;perimeter=rhombusPerimeter;whiteSpace=wrap;html=1;align=center;" parent="1" vertex="1">
          <mxGeometry x="533.75" y="-80" width="90" height="40" as="geometry" />
        </mxCell>
        <mxCell id="i0Z8oCs2JBzdhcKXwgO1-26" value="is a" style="triangle;whiteSpace=wrap;html=1;direction=south;" parent="1" vertex="1">
          <mxGeometry x="441" y="117.5" width="55" height="30" as="geometry" />
        </mxCell>
        <mxCell id="i0Z8oCs2JBzdhcKXwgO1-372" style="edgeStyle=orthogonalEdgeStyle;rounded=0;orthogonalLoop=1;jettySize=auto;html=1;exitX=0.5;exitY=1;exitDx=0;exitDy=0;entryX=0.5;entryY=0;entryDx=0;entryDy=0;endArrow=none;startFill=0;" parent="1" source="i0Z8oCs2JBzdhcKXwgO1-27" target="i0Z8oCs2JBzdhcKXwgO1-49" edge="1">
          <mxGeometry relative="1" as="geometry" />
        </mxCell>
        <mxCell id="i0Z8oCs2JBzdhcKXwgO1-377" value="0..N" style="edgeLabel;html=1;align=center;verticalAlign=middle;resizable=0;points=[];" parent="i0Z8oCs2JBzdhcKXwgO1-372" vertex="1" connectable="0">
          <mxGeometry x="-0.1778" y="-1" relative="1" as="geometry">
            <mxPoint as="offset" />
          </mxGeometry>
        </mxCell>
        <mxCell id="i0Z8oCs2JBzdhcKXwgO1-385" style="edgeStyle=orthogonalEdgeStyle;rounded=0;orthogonalLoop=1;jettySize=auto;html=1;exitX=0;exitY=0.5;exitDx=0;exitDy=0;entryX=1;entryY=0.5;entryDx=0;entryDy=0;endArrow=none;startFill=0;" parent="1" source="i0Z8oCs2JBzdhcKXwgO1-27" target="i0Z8oCs2JBzdhcKXwgO1-89" edge="1">
          <mxGeometry relative="1" as="geometry" />
        </mxCell>
        <mxCell id="i0Z8oCs2JBzdhcKXwgO1-386" value="0..N" style="edgeLabel;html=1;align=center;verticalAlign=middle;resizable=0;points=[];" parent="i0Z8oCs2JBzdhcKXwgO1-385" vertex="1" connectable="0">
          <mxGeometry x="0.0183" y="1" relative="1" as="geometry">
            <mxPoint as="offset" />
          </mxGeometry>
        </mxCell>
        <mxCell id="i0Z8oCs2JBzdhcKXwgO1-27" value="User" style="whiteSpace=wrap;html=1;align=center;" parent="1" vertex="1">
          <mxGeometry x="418.5" y="200" width="100" height="40" as="geometry" />
        </mxCell>
        <mxCell id="i0Z8oCs2JBzdhcKXwgO1-366" style="edgeStyle=orthogonalEdgeStyle;rounded=0;orthogonalLoop=1;jettySize=auto;html=1;exitX=0.5;exitY=1;exitDx=0;exitDy=0;entryX=0.5;entryY=0;entryDx=0;entryDy=0;endArrow=none;startFill=0;" parent="1" source="i0Z8oCs2JBzdhcKXwgO1-29" target="i0Z8oCs2JBzdhcKXwgO1-87" edge="1">
          <mxGeometry relative="1" as="geometry" />
        </mxCell>
        <mxCell id="i0Z8oCs2JBzdhcKXwgO1-371" value="0..N" style="edgeLabel;html=1;align=center;verticalAlign=middle;resizable=0;points=[];" parent="i0Z8oCs2JBzdhcKXwgO1-366" vertex="1" connectable="0">
          <mxGeometry x="-0.0943" y="-1" relative="1" as="geometry">
            <mxPoint as="offset" />
          </mxGeometry>
        </mxCell>
        <mxCell id="i0Z8oCs2JBzdhcKXwgO1-29" value="Employee" style="whiteSpace=wrap;html=1;align=center;" parent="1" vertex="1">
          <mxGeometry x="897.5" y="200" width="100" height="40" as="geometry" />
        </mxCell>
        <mxCell id="i0Z8oCs2JBzdhcKXwgO1-32" value="jornada" style="ellipse;whiteSpace=wrap;html=1;align=center;" parent="1" vertex="1">
          <mxGeometry x="1050" y="160" width="100" height="40" as="geometry" />
        </mxCell>
        <mxCell id="i0Z8oCs2JBzdhcKXwgO1-33" value="contract" style="ellipse;whiteSpace=wrap;html=1;align=center;" parent="1" vertex="1">
          <mxGeometry x="1050" y="200" width="100" height="40" as="geometry" />
        </mxCell>
        <mxCell id="i0Z8oCs2JBzdhcKXwgO1-34" value="isapre" style="ellipse;whiteSpace=wrap;html=1;align=center;" parent="1" vertex="1">
          <mxGeometry x="1050" y="240" width="100" height="40" as="geometry" />
        </mxCell>
        <mxCell id="i0Z8oCs2JBzdhcKXwgO1-363" style="edgeStyle=orthogonalEdgeStyle;rounded=0;orthogonalLoop=1;jettySize=auto;html=1;exitX=0.5;exitY=1;exitDx=0;exitDy=0;entryX=0.5;entryY=0;entryDx=0;entryDy=0;endArrow=none;startFill=0;" parent="1" source="i0Z8oCs2JBzdhcKXwgO1-35" target="i0Z8oCs2JBzdhcKXwgO1-75" edge="1">
          <mxGeometry relative="1" as="geometry" />
        </mxCell>
        <mxCell id="i0Z8oCs2JBzdhcKXwgO1-378" value="0..N" style="edgeLabel;html=1;align=center;verticalAlign=middle;resizable=0;points=[];" parent="i0Z8oCs2JBzdhcKXwgO1-363" vertex="1" connectable="0">
          <mxGeometry x="-0.08" y="-1" relative="1" as="geometry">
            <mxPoint as="offset" />
          </mxGeometry>
        </mxCell>
        <mxCell id="i0Z8oCs2JBzdhcKXwgO1-374" style="edgeStyle=orthogonalEdgeStyle;rounded=0;orthogonalLoop=1;jettySize=auto;html=1;exitX=0.5;exitY=0;exitDx=0;exitDy=0;entryX=0.5;entryY=1;entryDx=0;entryDy=0;shape=link;" parent="1" source="i0Z8oCs2JBzdhcKXwgO1-35" target="i0Z8oCs2JBzdhcKXwgO1-49" edge="1">
          <mxGeometry relative="1" as="geometry" />
        </mxCell>
        <mxCell id="i0Z8oCs2JBzdhcKXwgO1-376" value="1..1" style="edgeLabel;html=1;align=center;verticalAlign=middle;resizable=0;points=[];" parent="i0Z8oCs2JBzdhcKXwgO1-374" vertex="1" connectable="0">
          <mxGeometry x="-0.0362" y="1" relative="1" as="geometry">
            <mxPoint as="offset" />
          </mxGeometry>
        </mxCell>
        <mxCell id="i0Z8oCs2JBzdhcKXwgO1-35" value="Agenda" style="whiteSpace=wrap;html=1;align=center;" parent="1" vertex="1">
          <mxGeometry x="418.5" y="361" width="100" height="40" as="geometry" />
        </mxCell>
        <mxCell id="i0Z8oCs2JBzdhcKXwgO1-36" value="&lt;u&gt;reservationCode&lt;/u&gt;" style="ellipse;whiteSpace=wrap;html=1;align=center;" parent="1" vertex="1">
          <mxGeometry x="341" y="600" width="100" height="40" as="geometry" />
        </mxCell>
        <mxCell id="i0Z8oCs2JBzdhcKXwgO1-38" value="etiqueta" style="ellipse;whiteSpace=wrap;html=1;align=center;" parent="1" vertex="1">
          <mxGeometry x="281.5" y="381" width="100" height="40" as="geometry" />
        </mxCell>
        <mxCell id="i0Z8oCs2JBzdhcKXwgO1-362" style="edgeStyle=orthogonalEdgeStyle;rounded=0;orthogonalLoop=1;jettySize=auto;html=1;exitX=0.5;exitY=0;exitDx=0;exitDy=0;entryX=0.5;entryY=1;entryDx=0;entryDy=0;" parent="1" source="i0Z8oCs2JBzdhcKXwgO1-39" target="i0Z8oCs2JBzdhcKXwgO1-75" edge="1">
          <mxGeometry relative="1" as="geometry" />
        </mxCell>
        <mxCell id="i0Z8oCs2JBzdhcKXwgO1-364" value="0..1" style="edgeLabel;html=1;align=center;verticalAlign=middle;resizable=0;points=[];" parent="i0Z8oCs2JBzdhcKXwgO1-362" vertex="1" connectable="0">
          <mxGeometry x="-0.0974" y="2" relative="1" as="geometry">
            <mxPoint as="offset" />
          </mxGeometry>
        </mxCell>
        <mxCell id="i0Z8oCs2JBzdhcKXwgO1-39" value="Reservation" style="whiteSpace=wrap;html=1;align=center;" parent="1" vertex="1">
          <mxGeometry x="418.5" y="520" width="100" height="40" as="geometry" />
        </mxCell>
        <mxCell id="i0Z8oCs2JBzdhcKXwgO1-40" value="&lt;u&gt;agendaCore&lt;/u&gt;" style="ellipse;whiteSpace=wrap;html=1;align=center;" parent="1" vertex="1">
          <mxGeometry x="281.5" y="341" width="100" height="40" as="geometry" />
        </mxCell>
        <mxCell id="i0Z8oCs2JBzdhcKXwgO1-41" value="date" style="ellipse;whiteSpace=wrap;html=1;align=center;" parent="1" vertex="1">
          <mxGeometry x="341" y="640" width="100" height="40" as="geometry" />
        </mxCell>
        <mxCell id="i0Z8oCs2JBzdhcKXwgO1-42" value="totalPaid" style="ellipse;whiteSpace=wrap;html=1;align=center;" parent="1" vertex="1">
          <mxGeometry x="341" y="680" width="100" height="40" as="geometry" />
        </mxCell>
        <mxCell id="i0Z8oCs2JBzdhcKXwgO1-43" value="numPax" style="ellipse;whiteSpace=wrap;html=1;align=center;" parent="1" vertex="1">
          <mxGeometry x="341" y="720" width="100" height="40" as="geometry" />
        </mxCell>
        <mxCell id="i0Z8oCs2JBzdhcKXwgO1-44" value="availability" style="ellipse;whiteSpace=wrap;html=1;align=center;" parent="1" vertex="1">
          <mxGeometry x="341" y="760" width="100" height="40" as="geometry" />
        </mxCell>
        <mxCell id="i0Z8oCs2JBzdhcKXwgO1-368" style="edgeStyle=orthogonalEdgeStyle;rounded=0;orthogonalLoop=1;jettySize=auto;html=1;exitX=0.5;exitY=0;exitDx=0;exitDy=0;entryX=0.5;entryY=1;entryDx=0;entryDy=0;shape=link;" parent="1" source="i0Z8oCs2JBzdhcKXwgO1-45" target="i0Z8oCs2JBzdhcKXwgO1-87" edge="1">
          <mxGeometry relative="1" as="geometry" />
        </mxCell>
        <mxCell id="i0Z8oCs2JBzdhcKXwgO1-370" value="1..1" style="edgeLabel;html=1;align=center;verticalAlign=middle;resizable=0;points=[];" parent="i0Z8oCs2JBzdhcKXwgO1-368" vertex="1" connectable="0">
          <mxGeometry x="0.0577" y="1" relative="1" as="geometry">
            <mxPoint as="offset" />
          </mxGeometry>
        </mxCell>
        <mxCell id="i0Z8oCs2JBzdhcKXwgO1-45" value="Transport" style="whiteSpace=wrap;html=1;align=center;" parent="1" vertex="1">
          <mxGeometry x="897.5" y="517.5" width="100" height="40" as="geometry" />
        </mxCell>
        <mxCell id="i0Z8oCs2JBzdhcKXwgO1-46" value="Hospedaje" style="whiteSpace=wrap;html=1;align=center;" parent="1" vertex="1">
          <mxGeometry x="893.75" y="967.5" width="100" height="40" as="geometry" />
        </mxCell>
        <mxCell id="i0Z8oCs2JBzdhcKXwgO1-47" value="Panorama" style="whiteSpace=wrap;html=1;align=center;" parent="1" vertex="1">
          <mxGeometry x="897.5" y="1377.5" width="100" height="40" as="geometry" />
        </mxCell>
        <mxCell id="i0Z8oCs2JBzdhcKXwgO1-48" value="is a" style="triangle;whiteSpace=wrap;html=1;direction=south;" parent="1" vertex="1">
          <mxGeometry x="920" y="117.5" width="55" height="30" as="geometry" />
        </mxCell>
        <mxCell id="i0Z8oCs2JBzdhcKXwgO1-49" value="Owns" style="shape=rhombus;perimeter=rhombusPerimeter;whiteSpace=wrap;html=1;align=center;" parent="1" vertex="1">
          <mxGeometry x="423.5" y="276" width="90" height="50" as="geometry" />
        </mxCell>
        <mxCell id="i0Z8oCs2JBzdhcKXwgO1-51" value="is a" style="triangle;whiteSpace=wrap;html=1;direction=east;" parent="1" vertex="1">
          <mxGeometry x="820" y="962.5" width="30" height="55" as="geometry" />
        </mxCell>
        <mxCell id="i0Z8oCs2JBzdhcKXwgO1-52" value="is a" style="triangle;whiteSpace=wrap;html=1;direction=east;" parent="1" vertex="1">
          <mxGeometry x="820" y="1370" width="30" height="55" as="geometry" />
        </mxCell>
        <mxCell id="i0Z8oCs2JBzdhcKXwgO1-379" style="edgeStyle=orthogonalEdgeStyle;rounded=0;orthogonalLoop=1;jettySize=auto;html=1;exitX=1;exitY=0.5;exitDx=0;exitDy=0;entryX=0;entryY=0.5;entryDx=0;entryDy=0;shape=link;" parent="1" source="i0Z8oCs2JBzdhcKXwgO1-53" target="i0Z8oCs2JBzdhcKXwgO1-56" edge="1">
          <mxGeometry relative="1" as="geometry" />
        </mxCell>
        <mxCell id="i0Z8oCs2JBzdhcKXwgO1-384" value="1..N" style="edgeLabel;html=1;align=center;verticalAlign=middle;resizable=0;points=[];" parent="i0Z8oCs2JBzdhcKXwgO1-379" vertex="1" connectable="0">
          <mxGeometry x="-0.1618" relative="1" as="geometry">
            <mxPoint as="offset" />
          </mxGeometry>
        </mxCell>
        <mxCell id="i0Z8oCs2JBzdhcKXwgO1-53" value="Hotel" style="whiteSpace=wrap;html=1;align=center;" parent="1" vertex="1">
          <mxGeometry x="1116.25" y="970" width="93.75" height="40" as="geometry" />
        </mxCell>
        <mxCell id="i0Z8oCs2JBzdhcKXwgO1-54" value="AirBnB" style="whiteSpace=wrap;html=1;align=center;" parent="1" vertex="1">
          <mxGeometry x="1116.25" y="1090" width="100" height="40" as="geometry" />
        </mxCell>
        <mxCell id="i0Z8oCs2JBzdhcKXwgO1-381" style="edgeStyle=orthogonalEdgeStyle;rounded=0;orthogonalLoop=1;jettySize=auto;html=1;exitX=0;exitY=0.5;exitDx=0;exitDy=0;entryX=1;entryY=0.5;entryDx=0;entryDy=0;shape=link;" parent="1" source="i0Z8oCs2JBzdhcKXwgO1-55" target="i0Z8oCs2JBzdhcKXwgO1-56" edge="1">
          <mxGeometry relative="1" as="geometry" />
        </mxCell>
        <mxCell id="i0Z8oCs2JBzdhcKXwgO1-383" value="1..1" style="edgeLabel;html=1;align=center;verticalAlign=middle;resizable=0;points=[];" parent="i0Z8oCs2JBzdhcKXwgO1-381" vertex="1" connectable="0">
          <mxGeometry x="0.1089" relative="1" as="geometry">
            <mxPoint as="offset" />
          </mxGeometry>
        </mxCell>
        <mxCell id="i0Z8oCs2JBzdhcKXwgO1-55" value="Room" style="shape=ext;margin=3;double=1;whiteSpace=wrap;html=1;align=center;" parent="1" vertex="1">
          <mxGeometry x="1396.25" y="967.5" width="100" height="40" as="geometry" />
        </mxCell>
        <mxCell id="i0Z8oCs2JBzdhcKXwgO1-56" value="has" style="shape=rhombus;double=1;perimeter=rhombusPerimeter;whiteSpace=wrap;html=1;align=center;" parent="1" vertex="1">
          <mxGeometry x="1246.25" y="958" width="120" height="60" as="geometry" />
        </mxCell>
        <mxCell id="i0Z8oCs2JBzdhcKXwgO1-57" value="&lt;span style=&quot;border-bottom: 1px dotted&quot;&gt;roomNumber&lt;/span&gt;" style="ellipse;whiteSpace=wrap;html=1;align=center;" parent="1" vertex="1">
          <mxGeometry x="1536.25" y="967.5" width="100" height="40" as="geometry" />
        </mxCell>
        <mxCell id="i0Z8oCs2JBzdhcKXwgO1-58" value="hostName" style="ellipse;whiteSpace=wrap;html=1;align=center;" parent="1" vertex="1">
          <mxGeometry x="1256.25" y="1090" width="100" height="40" as="geometry" />
        </mxCell>
        <mxCell id="i0Z8oCs2JBzdhcKXwgO1-59" value="Bus" style="whiteSpace=wrap;html=1;align=center;" parent="1" vertex="1">
          <mxGeometry x="1120" y="760" width="100" height="40" as="geometry" />
        </mxCell>
        <mxCell id="i0Z8oCs2JBzdhcKXwgO1-60" value="Train" style="whiteSpace=wrap;html=1;align=center;" parent="1" vertex="1">
          <mxGeometry x="1120" y="640" width="100" height="40" as="geometry" />
        </mxCell>
        <mxCell id="i0Z8oCs2JBzdhcKXwgO1-61" value="Plane" style="whiteSpace=wrap;html=1;align=center;" parent="1" vertex="1">
          <mxGeometry x="1120" y="520" width="100" height="40" as="geometry" />
        </mxCell>
        <mxCell id="i0Z8oCs2JBzdhcKXwgO1-387" style="edgeStyle=orthogonalEdgeStyle;rounded=0;orthogonalLoop=1;jettySize=auto;html=1;exitX=0.5;exitY=0;exitDx=0;exitDy=0;entryX=0.5;entryY=1;entryDx=0;entryDy=0;shape=link;" parent="1" source="i0Z8oCs2JBzdhcKXwgO1-63" target="i0Z8oCs2JBzdhcKXwgO1-89" edge="1">
          <mxGeometry relative="1" as="geometry" />
        </mxCell>
        <mxCell id="i0Z8oCs2JBzdhcKXwgO1-388" value="1..1" style="edgeLabel;html=1;align=center;verticalAlign=middle;resizable=0;points=[];" parent="i0Z8oCs2JBzdhcKXwgO1-387" vertex="1" connectable="0">
          <mxGeometry x="-0.0125" y="-1" relative="1" as="geometry">
            <mxPoint y="1" as="offset" />
          </mxGeometry>
        </mxCell>
        <mxCell id="i0Z8oCs2JBzdhcKXwgO1-390" style="edgeStyle=orthogonalEdgeStyle;rounded=0;orthogonalLoop=1;jettySize=auto;html=1;exitX=0.5;exitY=1;exitDx=0;exitDy=0;endArrow=none;startFill=0;shape=link;" parent="1" source="i0Z8oCs2JBzdhcKXwgO1-63" edge="1">
          <mxGeometry relative="1" as="geometry">
            <mxPoint x="163" y="510" as="targetPoint" />
          </mxGeometry>
        </mxCell>
        <mxCell id="i0Z8oCs2JBzdhcKXwgO1-394" value="1..1" style="edgeLabel;html=1;align=center;verticalAlign=middle;resizable=0;points=[];" parent="i0Z8oCs2JBzdhcKXwgO1-390" vertex="1" connectable="0">
          <mxGeometry x="-0.0347" y="3" relative="1" as="geometry">
            <mxPoint as="offset" />
          </mxGeometry>
        </mxCell>
        <mxCell id="i0Z8oCs2JBzdhcKXwgO1-63" value="Insurance" style="whiteSpace=wrap;html=1;align=center;" parent="1" vertex="1">
          <mxGeometry x="113" y="361" width="100" height="40" as="geometry" />
        </mxCell>
        <mxCell id="i0Z8oCs2JBzdhcKXwgO1-404" style="edgeStyle=orthogonalEdgeStyle;rounded=0;orthogonalLoop=1;jettySize=auto;html=1;exitX=0.5;exitY=0;exitDx=0;exitDy=0;entryX=0.5;entryY=1;entryDx=0;entryDy=0;shape=link;" parent="1" source="i0Z8oCs2JBzdhcKXwgO1-64" target="i0Z8oCs2JBzdhcKXwgO1-397" edge="1">
          <mxGeometry relative="1" as="geometry" />
        </mxCell>
        <mxCell id="i0Z8oCs2JBzdhcKXwgO1-408" value="1..1" style="edgeLabel;html=1;align=center;verticalAlign=middle;resizable=0;points=[];" parent="i0Z8oCs2JBzdhcKXwgO1-404" vertex="1" connectable="0">
          <mxGeometry x="-0.1052" relative="1" as="geometry">
            <mxPoint as="offset" />
          </mxGeometry>
        </mxCell>
        <mxCell id="i0Z8oCs2JBzdhcKXwgO1-64" value="Review" style="whiteSpace=wrap;html=1;align=center;" parent="1" vertex="1">
          <mxGeometry x="559" y="359" width="100" height="40" as="geometry" />
        </mxCell>
        <mxCell id="i0Z8oCs2JBzdhcKXwgO1-65" value="userEmail" style="ellipse;whiteSpace=wrap;html=1;align=center;fontStyle=4;" parent="1" vertex="1">
          <mxGeometry x="699.5" y="280" width="100" height="40" as="geometry" />
        </mxCell>
        <mxCell id="i0Z8oCs2JBzdhcKXwgO1-66" value="reservationCode" style="ellipse;whiteSpace=wrap;html=1;align=center;fontStyle=4;" parent="1" vertex="1">
          <mxGeometry x="699.5" y="320" width="100" height="40" as="geometry" />
        </mxCell>
        <mxCell id="i0Z8oCs2JBzdhcKXwgO1-67" value="rating" style="ellipse;whiteSpace=wrap;html=1;align=center;" parent="1" vertex="1">
          <mxGeometry x="699.5" y="399" width="100" height="40" as="geometry" />
        </mxCell>
        <mxCell id="i0Z8oCs2JBzdhcKXwgO1-68" value="description" style="ellipse;whiteSpace=wrap;html=1;align=center;" parent="1" vertex="1">
          <mxGeometry x="699.5" y="439" width="100" height="40" as="geometry" />
        </mxCell>
        <mxCell id="i0Z8oCs2JBzdhcKXwgO1-69" value="dateTime" style="ellipse;whiteSpace=wrap;html=1;align=center;" parent="1" vertex="1">
          <mxGeometry x="699.5" y="359" width="100" height="40" as="geometry" />
        </mxCell>
        <mxCell id="i0Z8oCs2JBzdhcKXwgO1-70" value="insuranceID" style="ellipse;whiteSpace=wrap;html=1;align=center;fontStyle=4;" parent="1" vertex="1">
          <mxGeometry x="-60" y="281" width="100" height="40" as="geometry" />
        </mxCell>
        <mxCell id="i0Z8oCs2JBzdhcKXwgO1-71" value="totalPrice" style="ellipse;whiteSpace=wrap;html=1;align=center;" parent="1" vertex="1">
          <mxGeometry x="-60" y="321" width="100" height="40" as="geometry" />
        </mxCell>
        <mxCell id="i0Z8oCs2JBzdhcKXwgO1-72" value="insuranceType" style="ellipse;whiteSpace=wrap;html=1;align=center;" parent="1" vertex="1">
          <mxGeometry x="-60" y="361" width="100" height="40" as="geometry" />
        </mxCell>
        <mxCell id="i0Z8oCs2JBzdhcKXwgO1-73" value="clause" style="ellipse;whiteSpace=wrap;html=1;align=center;" parent="1" vertex="1">
          <mxGeometry x="-60" y="401" width="100" height="40" as="geometry" />
        </mxCell>
        <mxCell id="i0Z8oCs2JBzdhcKXwgO1-74" value="company" style="ellipse;whiteSpace=wrap;html=1;align=center;" parent="1" vertex="1">
          <mxGeometry x="-60" y="441" width="100" height="40" as="geometry" />
        </mxCell>
        <mxCell id="i0Z8oCs2JBzdhcKXwgO1-75" value="Contains" style="shape=rhombus;perimeter=rhombusPerimeter;whiteSpace=wrap;html=1;align=center;" parent="1" vertex="1">
          <mxGeometry x="423.5" y="431" width="90" height="50" as="geometry" />
        </mxCell>
        <mxCell id="i0Z8oCs2JBzdhcKXwgO1-77" value="is a" style="triangle;whiteSpace=wrap;html=1;direction=east;" parent="1" vertex="1">
          <mxGeometry x="1046.25" y="962.5" width="30" height="55" as="geometry" />
        </mxCell>
        <mxCell id="i0Z8oCs2JBzdhcKXwgO1-78" value="is a" style="triangle;whiteSpace=wrap;html=1;direction=east;" parent="1" vertex="1">
          <mxGeometry x="1046.25" y="1082.5" width="30" height="55" as="geometry" />
        </mxCell>
        <mxCell id="i0Z8oCs2JBzdhcKXwgO1-79" value="is a" style="triangle;whiteSpace=wrap;html=1;direction=east;" parent="1" vertex="1">
          <mxGeometry x="1050" y="755.5" width="30" height="55" as="geometry" />
        </mxCell>
        <mxCell id="i0Z8oCs2JBzdhcKXwgO1-80" value="is a" style="triangle;whiteSpace=wrap;html=1;direction=east;" parent="1" vertex="1">
          <mxGeometry x="1050" y="632.5" width="30" height="55" as="geometry" />
        </mxCell>
        <mxCell id="i0Z8oCs2JBzdhcKXwgO1-81" value="is a" style="triangle;whiteSpace=wrap;html=1;direction=east;" parent="1" vertex="1">
          <mxGeometry x="1050" y="510" width="30" height="55" as="geometry" />
        </mxCell>
        <mxCell id="i0Z8oCs2JBzdhcKXwgO1-87" value="Operates" style="shape=rhombus;perimeter=rhombusPerimeter;whiteSpace=wrap;html=1;align=center;" parent="1" vertex="1">
          <mxGeometry x="902.5" y="356" width="90" height="50" as="geometry" />
        </mxCell>
        <mxCell id="i0Z8oCs2JBzdhcKXwgO1-391" style="edgeStyle=orthogonalEdgeStyle;rounded=0;orthogonalLoop=1;jettySize=auto;html=1;exitX=1;exitY=0.5;exitDx=0;exitDy=0;entryX=0;entryY=0.5;entryDx=0;entryDy=0;endArrow=none;startFill=0;" parent="1" source="i0Z8oCs2JBzdhcKXwgO1-88" target="i0Z8oCs2JBzdhcKXwgO1-39" edge="1">
          <mxGeometry relative="1" as="geometry" />
        </mxCell>
        <mxCell id="i0Z8oCs2JBzdhcKXwgO1-392" value="0..N" style="edgeLabel;html=1;align=center;verticalAlign=middle;resizable=0;points=[];" parent="i0Z8oCs2JBzdhcKXwgO1-391" vertex="1" connectable="0">
          <mxGeometry x="-0.0708" y="1" relative="1" as="geometry">
            <mxPoint as="offset" />
          </mxGeometry>
        </mxCell>
        <mxCell id="i0Z8oCs2JBzdhcKXwgO1-88" value="covers" style="shape=rhombus;perimeter=rhombusPerimeter;whiteSpace=wrap;html=1;align=center;" parent="1" vertex="1">
          <mxGeometry x="107.5" y="510.5" width="111" height="60" as="geometry" />
        </mxCell>
        <mxCell id="i0Z8oCs2JBzdhcKXwgO1-89" value="purchases" style="shape=rhombus;perimeter=rhombusPerimeter;whiteSpace=wrap;html=1;align=center;" parent="1" vertex="1">
          <mxGeometry x="98" y="187.5" width="129" height="65" as="geometry" />
        </mxCell>
        <mxCell id="i0Z8oCs2JBzdhcKXwgO1-90" value="is a" style="triangle;whiteSpace=wrap;html=1;direction=east;" parent="1" vertex="1">
          <mxGeometry x="820" y="515" width="30" height="55" as="geometry" />
        </mxCell>
        <mxCell id="i0Z8oCs2JBzdhcKXwgO1-92" value="seatClass" style="ellipse;whiteSpace=wrap;html=1;align=center;" parent="1" vertex="1">
          <mxGeometry x="1260" y="517.5" width="100" height="40" as="geometry" />
        </mxCell>
        <mxCell id="i0Z8oCs2JBzdhcKXwgO1-93" value="escalas" style="ellipse;whiteSpace=wrap;html=1;align=center;" parent="1" vertex="1">
          <mxGeometry x="1260" y="557.5" width="100" height="40" as="geometry" />
        </mxCell>
        <mxCell id="i0Z8oCs2JBzdhcKXwgO1-94" value="amenities" style="ellipse;whiteSpace=wrap;html=1;align=center;" parent="1" vertex="1">
          <mxGeometry x="1260" y="637.5" width="100" height="40" as="geometry" />
        </mxCell>
        <mxCell id="i0Z8oCs2JBzdhcKXwgO1-95" value="paradas" style="ellipse;whiteSpace=wrap;html=1;align=center;" parent="1" vertex="1">
          <mxGeometry x="1260" y="677.5" width="100" height="40" as="geometry" />
        </mxCell>
        <mxCell id="i0Z8oCs2JBzdhcKXwgO1-96" value="busType" style="ellipse;whiteSpace=wrap;html=1;align=center;" parent="1" vertex="1">
          <mxGeometry x="1260" y="757.5" width="100" height="40" as="geometry" />
        </mxCell>
        <mxCell id="i0Z8oCs2JBzdhcKXwgO1-97" value="amenities" style="ellipse;whiteSpace=wrap;html=1;align=center;" parent="1" vertex="1">
          <mxGeometry x="1260" y="797.5" width="100" height="40" as="geometry" />
        </mxCell>
        <mxCell id="i0Z8oCs2JBzdhcKXwgO1-100" value="roomType" style="ellipse;whiteSpace=wrap;html=1;align=center;" parent="1" vertex="1">
          <mxGeometry x="1536.25" y="1007.5" width="100" height="40" as="geometry" />
        </mxCell>
        <mxCell id="i0Z8oCs2JBzdhcKXwgO1-101" value="hostNumber" style="ellipse;whiteSpace=wrap;html=1;align=center;" parent="1" vertex="1">
          <mxGeometry x="1256.25" y="1130" width="100" height="40" as="geometry" />
        </mxCell>
        <mxCell id="i0Z8oCs2JBzdhcKXwgO1-102" value="description" style="ellipse;whiteSpace=wrap;html=1;align=center;" parent="1" vertex="1">
          <mxGeometry x="1256.25" y="1170" width="100" height="40" as="geometry" />
        </mxCell>
        <mxCell id="i0Z8oCs2JBzdhcKXwgO1-104" value="p_name" style="ellipse;whiteSpace=wrap;html=1;align=center;" parent="1" vertex="1">
          <mxGeometry x="1060" y="1377.5" width="100" height="40" as="geometry" />
        </mxCell>
        <mxCell id="i0Z8oCs2JBzdhcKXwgO1-105" value="company" style="ellipse;whiteSpace=wrap;html=1;align=center;" parent="1" vertex="1">
          <mxGeometry x="1060" y="1417.5" width="100" height="40" as="geometry" />
        </mxCell>
        <mxCell id="i0Z8oCs2JBzdhcKXwgO1-106" value="description" style="ellipse;whiteSpace=wrap;html=1;align=center;" parent="1" vertex="1">
          <mxGeometry x="1060" y="1457.5" width="100" height="40" as="geometry" />
        </mxCell>
        <mxCell id="i0Z8oCs2JBzdhcKXwgO1-107" value="location" style="ellipse;whiteSpace=wrap;html=1;align=center;" parent="1" vertex="1">
          <mxGeometry x="1060" y="1497.5" width="100" height="40" as="geometry" />
        </mxCell>
        <mxCell id="i0Z8oCs2JBzdhcKXwgO1-108" value="hoursDuration" style="ellipse;whiteSpace=wrap;html=1;align=center;" parent="1" vertex="1">
          <mxGeometry x="1060" y="1537.5" width="100" height="40" as="geometry" />
        </mxCell>
        <mxCell id="i0Z8oCs2JBzdhcKXwgO1-109" value="capacity" style="ellipse;whiteSpace=wrap;html=1;align=center;" parent="1" vertex="1">
          <mxGeometry x="1060" y="1577.5" width="100" height="40" as="geometry" />
        </mxCell>
        <mxCell id="i0Z8oCs2JBzdhcKXwgO1-114" value="restrictions" style="ellipse;whiteSpace=wrap;html=1;align=center;" parent="1" vertex="1">
          <mxGeometry x="1060" y="1617.5" width="100" height="40" as="geometry" />
        </mxCell>
        <mxCell id="i0Z8oCs2JBzdhcKXwgO1-115" value="datePanorama" style="ellipse;whiteSpace=wrap;html=1;align=center;" parent="1" vertex="1">
          <mxGeometry x="1060" y="1657.5" width="100" height="40" as="geometry" />
        </mxCell>
        <mxCell id="i0Z8oCs2JBzdhcKXwgO1-117" value="placeOrigin" style="ellipse;whiteSpace=wrap;html=1;align=center;" parent="1" vertex="1">
          <mxGeometry x="840" y="597.5" width="100" height="40" as="geometry" />
        </mxCell>
        <mxCell id="i0Z8oCs2JBzdhcKXwgO1-118" value="placeArrival" style="ellipse;whiteSpace=wrap;html=1;align=center;" parent="1" vertex="1">
          <mxGeometry x="840" y="637.5" width="100" height="40" as="geometry" />
        </mxCell>
        <mxCell id="i0Z8oCs2JBzdhcKXwgO1-119" value="capacity" style="ellipse;whiteSpace=wrap;html=1;align=center;" parent="1" vertex="1">
          <mxGeometry x="840" y="677.5" width="100" height="40" as="geometry" />
        </mxCell>
        <mxCell id="i0Z8oCs2JBzdhcKXwgO1-120" value="estimatedTime" style="ellipse;whiteSpace=wrap;html=1;align=center;" parent="1" vertex="1">
          <mxGeometry x="840" y="717.5" width="100" height="40" as="geometry" />
        </mxCell>
        <mxCell id="i0Z8oCs2JBzdhcKXwgO1-121" value="seatPrice" style="ellipse;whiteSpace=wrap;html=1;align=center;" parent="1" vertex="1">
          <mxGeometry x="840" y="757.5" width="100" height="40" as="geometry" />
        </mxCell>
        <mxCell id="i0Z8oCs2JBzdhcKXwgO1-122" value="company" style="ellipse;whiteSpace=wrap;html=1;align=center;" parent="1" vertex="1">
          <mxGeometry x="840" y="797.5" width="100" height="40" as="geometry" />
        </mxCell>
        <mxCell id="i0Z8oCs2JBzdhcKXwgO1-123" value="departureDate" style="ellipse;whiteSpace=wrap;html=1;align=center;" parent="1" vertex="1">
          <mxGeometry x="840" y="837.5" width="100" height="40" as="geometry" />
        </mxCell>
        <mxCell id="i0Z8oCs2JBzdhcKXwgO1-124" value="arrivalDate" style="ellipse;whiteSpace=wrap;html=1;align=center;" parent="1" vertex="1">
          <mxGeometry x="840" y="877.5" width="100" height="40" as="geometry" />
        </mxCell>
        <mxCell id="i0Z8oCs2JBzdhcKXwgO1-133" value="h_name" style="ellipse;whiteSpace=wrap;html=1;align=center;" parent="1" vertex="1">
          <mxGeometry x="845.25" y="1040" width="100" height="40" as="geometry" />
        </mxCell>
        <mxCell id="i0Z8oCs2JBzdhcKXwgO1-134" value="location" style="ellipse;whiteSpace=wrap;html=1;align=center;" parent="1" vertex="1">
          <mxGeometry x="845.25" y="1080" width="100" height="40" as="geometry" />
        </mxCell>
        <mxCell id="i0Z8oCs2JBzdhcKXwgO1-135" value="pricePerNight" style="ellipse;whiteSpace=wrap;html=1;align=center;" parent="1" vertex="1">
          <mxGeometry x="845.25" y="1120" width="100" height="40" as="geometry" />
        </mxCell>
        <mxCell id="i0Z8oCs2JBzdhcKXwgO1-136" value="starRating" style="ellipse;whiteSpace=wrap;html=1;align=center;" parent="1" vertex="1">
          <mxGeometry x="845.25" y="1160" width="100" height="40" as="geometry" />
        </mxCell>
        <mxCell id="i0Z8oCs2JBzdhcKXwgO1-137" value="amenities" style="ellipse;whiteSpace=wrap;html=1;align=center;" parent="1" vertex="1">
          <mxGeometry x="845.25" y="1200" width="100" height="40" as="geometry" />
        </mxCell>
        <mxCell id="i0Z8oCs2JBzdhcKXwgO1-138" value="checkInDate" style="ellipse;whiteSpace=wrap;html=1;align=center;" parent="1" vertex="1">
          <mxGeometry x="845.25" y="1240" width="100" height="40" as="geometry" />
        </mxCell>
        <mxCell id="i0Z8oCs2JBzdhcKXwgO1-139" value="checkOutDate" style="ellipse;whiteSpace=wrap;html=1;align=center;" parent="1" vertex="1">
          <mxGeometry x="845.25" y="1280" width="100" height="40" as="geometry" />
        </mxCell>
        <mxCell id="i0Z8oCs2JBzdhcKXwgO1-146" value="" style="endArrow=none;html=1;rounded=0;exitX=1;exitY=0.5;exitDx=0;exitDy=0;" parent="1" source="i0Z8oCs2JBzdhcKXwgO1-11" edge="1">
          <mxGeometry relative="1" as="geometry">
            <mxPoint x="500" y="30" as="sourcePoint" />
            <mxPoint x="440" y="-40" as="targetPoint" />
          </mxGeometry>
        </mxCell>
        <mxCell id="i0Z8oCs2JBzdhcKXwgO1-147" value="" style="endArrow=none;html=1;rounded=0;exitX=1;exitY=0.5;exitDx=0;exitDy=0;" parent="1" edge="1">
          <mxGeometry relative="1" as="geometry">
            <mxPoint x="419" y="1" as="sourcePoint" />
            <mxPoint x="440" y="1" as="targetPoint" />
          </mxGeometry>
        </mxCell>
        <mxCell id="i0Z8oCs2JBzdhcKXwgO1-148" value="" style="endArrow=none;html=1;rounded=0;exitX=1;exitY=0.5;exitDx=0;exitDy=0;" parent="1" edge="1">
          <mxGeometry relative="1" as="geometry">
            <mxPoint x="419" y="41" as="sourcePoint" />
            <mxPoint x="440" y="41" as="targetPoint" />
          </mxGeometry>
        </mxCell>
        <mxCell id="i0Z8oCs2JBzdhcKXwgO1-149" value="" style="endArrow=none;html=1;rounded=0;exitX=1;exitY=0.5;exitDx=0;exitDy=0;" parent="1" edge="1">
          <mxGeometry relative="1" as="geometry">
            <mxPoint x="419" y="81" as="sourcePoint" />
            <mxPoint x="440" y="81" as="targetPoint" />
          </mxGeometry>
        </mxCell>
        <mxCell id="i0Z8oCs2JBzdhcKXwgO1-151" value="" style="line;strokeWidth=1;rotatable=0;dashed=0;labelPosition=right;align=left;verticalAlign=middle;spacingTop=0;spacingLeft=6;points=[];portConstraint=eastwest;direction=south;" parent="1" vertex="1">
          <mxGeometry x="436" y="-40" width="10" height="121" as="geometry" />
        </mxCell>
        <mxCell id="i0Z8oCs2JBzdhcKXwgO1-152" value="" style="endArrow=none;html=1;rounded=0;exitX=1;exitY=0.5;exitDx=0;exitDy=0;" parent="1" edge="1">
          <mxGeometry relative="1" as="geometry">
            <mxPoint x="419" y="-180" as="sourcePoint" />
            <mxPoint x="440" y="-180" as="targetPoint" />
          </mxGeometry>
        </mxCell>
        <mxCell id="i0Z8oCs2JBzdhcKXwgO1-153" value="" style="endArrow=none;html=1;rounded=0;exitX=1;exitY=0.5;exitDx=0;exitDy=0;" parent="1" edge="1">
          <mxGeometry relative="1" as="geometry">
            <mxPoint x="419" y="-139" as="sourcePoint" />
            <mxPoint x="440" y="-139" as="targetPoint" />
          </mxGeometry>
        </mxCell>
        <mxCell id="i0Z8oCs2JBzdhcKXwgO1-154" value="" style="endArrow=none;html=1;rounded=0;exitX=1;exitY=0.5;exitDx=0;exitDy=0;" parent="1" edge="1">
          <mxGeometry relative="1" as="geometry">
            <mxPoint x="419" y="-99" as="sourcePoint" />
            <mxPoint x="440" y="-99" as="targetPoint" />
          </mxGeometry>
        </mxCell>
        <mxCell id="i0Z8oCs2JBzdhcKXwgO1-155" value="" style="endArrow=none;html=1;rounded=0;exitX=0.501;exitY=0.5;exitDx=0;exitDy=0;exitPerimeter=0;entryX=0;entryY=0.5;entryDx=0;entryDy=0;" parent="1" source="i0Z8oCs2JBzdhcKXwgO1-151" target="i0Z8oCs2JBzdhcKXwgO1-10" edge="1">
          <mxGeometry relative="1" as="geometry">
            <mxPoint x="443" y="20" as="sourcePoint" />
            <mxPoint x="520" y="20" as="targetPoint" />
          </mxGeometry>
        </mxCell>
        <mxCell id="i0Z8oCs2JBzdhcKXwgO1-156" value="" style="endArrow=none;html=1;rounded=0;" parent="1" edge="1">
          <mxGeometry relative="1" as="geometry">
            <mxPoint x="440" y="-140" as="sourcePoint" />
            <mxPoint x="440" y="-180" as="targetPoint" />
          </mxGeometry>
        </mxCell>
        <mxCell id="i0Z8oCs2JBzdhcKXwgO1-157" value="" style="endArrow=none;html=1;rounded=0;" parent="1" edge="1">
          <mxGeometry relative="1" as="geometry">
            <mxPoint x="440" y="-99" as="sourcePoint" />
            <mxPoint x="440" y="-139" as="targetPoint" />
          </mxGeometry>
        </mxCell>
        <mxCell id="i0Z8oCs2JBzdhcKXwgO1-158" value="" style="endArrow=none;html=1;rounded=0;" parent="1" edge="1">
          <mxGeometry relative="1" as="geometry">
            <mxPoint x="440" y="-140" as="sourcePoint" />
            <mxPoint x="530" y="-140" as="targetPoint" />
          </mxGeometry>
        </mxCell>
        <mxCell id="i0Z8oCs2JBzdhcKXwgO1-159" value="" style="endArrow=none;html=1;rounded=0;exitX=1;exitY=0.5;exitDx=0;exitDy=0;" parent="1" edge="1">
          <mxGeometry relative="1" as="geometry">
            <mxPoint x="439" y="620" as="sourcePoint" />
            <mxPoint x="460" y="620" as="targetPoint" />
          </mxGeometry>
        </mxCell>
        <mxCell id="i0Z8oCs2JBzdhcKXwgO1-160" value="" style="endArrow=none;html=1;rounded=0;exitX=1;exitY=0.5;exitDx=0;exitDy=0;" parent="1" edge="1">
          <mxGeometry relative="1" as="geometry">
            <mxPoint x="439" y="661" as="sourcePoint" />
            <mxPoint x="460" y="661" as="targetPoint" />
          </mxGeometry>
        </mxCell>
        <mxCell id="i0Z8oCs2JBzdhcKXwgO1-161" value="" style="endArrow=none;html=1;rounded=0;exitX=1;exitY=0.5;exitDx=0;exitDy=0;" parent="1" edge="1">
          <mxGeometry relative="1" as="geometry">
            <mxPoint x="439" y="701" as="sourcePoint" />
            <mxPoint x="460" y="701" as="targetPoint" />
          </mxGeometry>
        </mxCell>
        <mxCell id="i0Z8oCs2JBzdhcKXwgO1-162" value="" style="endArrow=none;html=1;rounded=0;" parent="1" edge="1">
          <mxGeometry relative="1" as="geometry">
            <mxPoint x="460" y="660" as="sourcePoint" />
            <mxPoint x="460" y="620" as="targetPoint" />
          </mxGeometry>
        </mxCell>
        <mxCell id="i0Z8oCs2JBzdhcKXwgO1-163" value="" style="endArrow=none;html=1;rounded=0;" parent="1" edge="1">
          <mxGeometry relative="1" as="geometry">
            <mxPoint x="460" y="701" as="sourcePoint" />
            <mxPoint x="460" y="661" as="targetPoint" />
          </mxGeometry>
        </mxCell>
        <mxCell id="i0Z8oCs2JBzdhcKXwgO1-164" value="" style="endArrow=none;html=1;rounded=0;exitX=1;exitY=0.5;exitDx=0;exitDy=0;" parent="1" edge="1">
          <mxGeometry relative="1" as="geometry">
            <mxPoint x="439" y="700" as="sourcePoint" />
            <mxPoint x="460" y="700" as="targetPoint" />
          </mxGeometry>
        </mxCell>
        <mxCell id="i0Z8oCs2JBzdhcKXwgO1-165" value="" style="endArrow=none;html=1;rounded=0;exitX=1;exitY=0.5;exitDx=0;exitDy=0;" parent="1" edge="1">
          <mxGeometry relative="1" as="geometry">
            <mxPoint x="439" y="741" as="sourcePoint" />
            <mxPoint x="460" y="741" as="targetPoint" />
          </mxGeometry>
        </mxCell>
        <mxCell id="i0Z8oCs2JBzdhcKXwgO1-166" value="" style="endArrow=none;html=1;rounded=0;exitX=1;exitY=0.5;exitDx=0;exitDy=0;" parent="1" edge="1">
          <mxGeometry relative="1" as="geometry">
            <mxPoint x="439" y="781" as="sourcePoint" />
            <mxPoint x="460" y="781" as="targetPoint" />
          </mxGeometry>
        </mxCell>
        <mxCell id="i0Z8oCs2JBzdhcKXwgO1-167" value="" style="endArrow=none;html=1;rounded=0;" parent="1" edge="1">
          <mxGeometry relative="1" as="geometry">
            <mxPoint x="460" y="740" as="sourcePoint" />
            <mxPoint x="460" y="700" as="targetPoint" />
          </mxGeometry>
        </mxCell>
        <mxCell id="i0Z8oCs2JBzdhcKXwgO1-168" value="" style="endArrow=none;html=1;rounded=0;" parent="1" edge="1">
          <mxGeometry relative="1" as="geometry">
            <mxPoint x="460" y="781" as="sourcePoint" />
            <mxPoint x="460" y="741" as="targetPoint" />
          </mxGeometry>
        </mxCell>
        <mxCell id="i0Z8oCs2JBzdhcKXwgO1-169" value="" style="endArrow=none;html=1;rounded=0;exitX=0.405;exitY=0.983;exitDx=0;exitDy=0;exitPerimeter=0;" parent="1" source="i0Z8oCs2JBzdhcKXwgO1-39" edge="1">
          <mxGeometry relative="1" as="geometry">
            <mxPoint x="110" y="660" as="sourcePoint" />
            <mxPoint x="460" y="700" as="targetPoint" />
          </mxGeometry>
        </mxCell>
        <mxCell id="i0Z8oCs2JBzdhcKXwgO1-180" value="" style="endArrow=none;html=1;rounded=0;exitX=1;exitY=0.5;exitDx=0;exitDy=0;" parent="1" edge="1">
          <mxGeometry relative="1" as="geometry">
            <mxPoint x="940" y="616" as="sourcePoint" />
            <mxPoint x="961" y="616" as="targetPoint" />
          </mxGeometry>
        </mxCell>
        <mxCell id="i0Z8oCs2JBzdhcKXwgO1-181" value="" style="endArrow=none;html=1;rounded=0;exitX=1;exitY=0.5;exitDx=0;exitDy=0;" parent="1" edge="1">
          <mxGeometry relative="1" as="geometry">
            <mxPoint x="940" y="657" as="sourcePoint" />
            <mxPoint x="961" y="657" as="targetPoint" />
          </mxGeometry>
        </mxCell>
        <mxCell id="i0Z8oCs2JBzdhcKXwgO1-182" value="" style="endArrow=none;html=1;rounded=0;exitX=1;exitY=0.5;exitDx=0;exitDy=0;" parent="1" edge="1">
          <mxGeometry relative="1" as="geometry">
            <mxPoint x="940" y="697" as="sourcePoint" />
            <mxPoint x="961" y="697" as="targetPoint" />
          </mxGeometry>
        </mxCell>
        <mxCell id="i0Z8oCs2JBzdhcKXwgO1-183" value="" style="endArrow=none;html=1;rounded=0;" parent="1" edge="1">
          <mxGeometry relative="1" as="geometry">
            <mxPoint x="961" y="656" as="sourcePoint" />
            <mxPoint x="961" y="616" as="targetPoint" />
          </mxGeometry>
        </mxCell>
        <mxCell id="i0Z8oCs2JBzdhcKXwgO1-184" value="" style="endArrow=none;html=1;rounded=0;" parent="1" edge="1">
          <mxGeometry relative="1" as="geometry">
            <mxPoint x="961" y="697" as="sourcePoint" />
            <mxPoint x="961" y="657" as="targetPoint" />
          </mxGeometry>
        </mxCell>
        <mxCell id="i0Z8oCs2JBzdhcKXwgO1-185" value="" style="endArrow=none;html=1;rounded=0;exitX=1;exitY=0.5;exitDx=0;exitDy=0;" parent="1" edge="1">
          <mxGeometry relative="1" as="geometry">
            <mxPoint x="940" y="697" as="sourcePoint" />
            <mxPoint x="961" y="697" as="targetPoint" />
          </mxGeometry>
        </mxCell>
        <mxCell id="i0Z8oCs2JBzdhcKXwgO1-186" value="" style="endArrow=none;html=1;rounded=0;exitX=1;exitY=0.5;exitDx=0;exitDy=0;" parent="1" edge="1">
          <mxGeometry relative="1" as="geometry">
            <mxPoint x="940" y="738" as="sourcePoint" />
            <mxPoint x="961" y="738" as="targetPoint" />
          </mxGeometry>
        </mxCell>
        <mxCell id="i0Z8oCs2JBzdhcKXwgO1-187" value="" style="endArrow=none;html=1;rounded=0;exitX=1;exitY=0.5;exitDx=0;exitDy=0;" parent="1" edge="1">
          <mxGeometry relative="1" as="geometry">
            <mxPoint x="940" y="778" as="sourcePoint" />
            <mxPoint x="961" y="778" as="targetPoint" />
          </mxGeometry>
        </mxCell>
        <mxCell id="i0Z8oCs2JBzdhcKXwgO1-188" value="" style="endArrow=none;html=1;rounded=0;" parent="1" edge="1">
          <mxGeometry relative="1" as="geometry">
            <mxPoint x="961" y="737" as="sourcePoint" />
            <mxPoint x="961" y="697" as="targetPoint" />
          </mxGeometry>
        </mxCell>
        <mxCell id="i0Z8oCs2JBzdhcKXwgO1-189" value="" style="endArrow=none;html=1;rounded=0;" parent="1" edge="1">
          <mxGeometry relative="1" as="geometry">
            <mxPoint x="961" y="778" as="sourcePoint" />
            <mxPoint x="961" y="738" as="targetPoint" />
          </mxGeometry>
        </mxCell>
        <mxCell id="i0Z8oCs2JBzdhcKXwgO1-190" value="" style="endArrow=none;html=1;rounded=0;exitX=1;exitY=0.5;exitDx=0;exitDy=0;" parent="1" edge="1">
          <mxGeometry relative="1" as="geometry">
            <mxPoint x="940" y="779" as="sourcePoint" />
            <mxPoint x="961" y="779" as="targetPoint" />
          </mxGeometry>
        </mxCell>
        <mxCell id="i0Z8oCs2JBzdhcKXwgO1-191" value="" style="endArrow=none;html=1;rounded=0;exitX=1;exitY=0.5;exitDx=0;exitDy=0;" parent="1" edge="1">
          <mxGeometry relative="1" as="geometry">
            <mxPoint x="940" y="820" as="sourcePoint" />
            <mxPoint x="961" y="820" as="targetPoint" />
          </mxGeometry>
        </mxCell>
        <mxCell id="i0Z8oCs2JBzdhcKXwgO1-192" value="" style="endArrow=none;html=1;rounded=0;exitX=1;exitY=0.5;exitDx=0;exitDy=0;" parent="1" edge="1">
          <mxGeometry relative="1" as="geometry">
            <mxPoint x="940" y="860" as="sourcePoint" />
            <mxPoint x="961" y="860" as="targetPoint" />
          </mxGeometry>
        </mxCell>
        <mxCell id="i0Z8oCs2JBzdhcKXwgO1-193" value="" style="endArrow=none;html=1;rounded=0;" parent="1" edge="1">
          <mxGeometry relative="1" as="geometry">
            <mxPoint x="961" y="819" as="sourcePoint" />
            <mxPoint x="961" y="779" as="targetPoint" />
          </mxGeometry>
        </mxCell>
        <mxCell id="i0Z8oCs2JBzdhcKXwgO1-194" value="" style="endArrow=none;html=1;rounded=0;" parent="1" edge="1">
          <mxGeometry relative="1" as="geometry">
            <mxPoint x="961" y="860" as="sourcePoint" />
            <mxPoint x="961" y="820" as="targetPoint" />
          </mxGeometry>
        </mxCell>
        <mxCell id="i0Z8oCs2JBzdhcKXwgO1-195" value="" style="endArrow=none;html=1;rounded=0;exitX=1;exitY=0.5;exitDx=0;exitDy=0;" parent="1" edge="1">
          <mxGeometry relative="1" as="geometry">
            <mxPoint x="940" y="860" as="sourcePoint" />
            <mxPoint x="961" y="860" as="targetPoint" />
          </mxGeometry>
        </mxCell>
        <mxCell id="i0Z8oCs2JBzdhcKXwgO1-196" value="" style="endArrow=none;html=1;rounded=0;exitX=1;exitY=0.5;exitDx=0;exitDy=0;" parent="1" edge="1">
          <mxGeometry relative="1" as="geometry">
            <mxPoint x="940" y="901" as="sourcePoint" />
            <mxPoint x="961" y="901" as="targetPoint" />
          </mxGeometry>
        </mxCell>
        <mxCell id="i0Z8oCs2JBzdhcKXwgO1-198" value="" style="endArrow=none;html=1;rounded=0;" parent="1" edge="1">
          <mxGeometry relative="1" as="geometry">
            <mxPoint x="961" y="900" as="sourcePoint" />
            <mxPoint x="961" y="860" as="targetPoint" />
          </mxGeometry>
        </mxCell>
        <mxCell id="i0Z8oCs2JBzdhcKXwgO1-201" value="" style="line;strokeWidth=1;rotatable=0;dashed=0;labelPosition=right;align=left;verticalAlign=middle;spacingTop=0;spacingLeft=6;points=[];portConstraint=eastwest;direction=south;" parent="1" vertex="1">
          <mxGeometry x="956" y="557" width="10" height="63" as="geometry" />
        </mxCell>
        <mxCell id="i0Z8oCs2JBzdhcKXwgO1-202" value="" style="endArrow=none;html=1;rounded=0;exitX=1;exitY=0.5;exitDx=0;exitDy=0;" parent="1" edge="1">
          <mxGeometry relative="1" as="geometry">
            <mxPoint x="946" y="1057" as="sourcePoint" />
            <mxPoint x="967" y="1057" as="targetPoint" />
          </mxGeometry>
        </mxCell>
        <mxCell id="i0Z8oCs2JBzdhcKXwgO1-203" value="" style="endArrow=none;html=1;rounded=0;exitX=1;exitY=0.5;exitDx=0;exitDy=0;" parent="1" edge="1">
          <mxGeometry relative="1" as="geometry">
            <mxPoint x="946" y="1098" as="sourcePoint" />
            <mxPoint x="967" y="1098" as="targetPoint" />
          </mxGeometry>
        </mxCell>
        <mxCell id="i0Z8oCs2JBzdhcKXwgO1-204" value="" style="endArrow=none;html=1;rounded=0;exitX=1;exitY=0.5;exitDx=0;exitDy=0;" parent="1" edge="1">
          <mxGeometry relative="1" as="geometry">
            <mxPoint x="946" y="1138" as="sourcePoint" />
            <mxPoint x="967" y="1138" as="targetPoint" />
          </mxGeometry>
        </mxCell>
        <mxCell id="i0Z8oCs2JBzdhcKXwgO1-205" value="" style="endArrow=none;html=1;rounded=0;" parent="1" edge="1">
          <mxGeometry relative="1" as="geometry">
            <mxPoint x="967" y="1097" as="sourcePoint" />
            <mxPoint x="967" y="1057" as="targetPoint" />
          </mxGeometry>
        </mxCell>
        <mxCell id="i0Z8oCs2JBzdhcKXwgO1-206" value="" style="endArrow=none;html=1;rounded=0;" parent="1" edge="1">
          <mxGeometry relative="1" as="geometry">
            <mxPoint x="967" y="1138" as="sourcePoint" />
            <mxPoint x="967" y="1098" as="targetPoint" />
          </mxGeometry>
        </mxCell>
        <mxCell id="i0Z8oCs2JBzdhcKXwgO1-207" value="" style="endArrow=none;html=1;rounded=0;exitX=1;exitY=0.5;exitDx=0;exitDy=0;" parent="1" edge="1">
          <mxGeometry relative="1" as="geometry">
            <mxPoint x="946" y="1138" as="sourcePoint" />
            <mxPoint x="967" y="1138" as="targetPoint" />
          </mxGeometry>
        </mxCell>
        <mxCell id="i0Z8oCs2JBzdhcKXwgO1-208" value="" style="endArrow=none;html=1;rounded=0;exitX=1;exitY=0.5;exitDx=0;exitDy=0;" parent="1" edge="1">
          <mxGeometry relative="1" as="geometry">
            <mxPoint x="946" y="1179" as="sourcePoint" />
            <mxPoint x="967" y="1179" as="targetPoint" />
          </mxGeometry>
        </mxCell>
        <mxCell id="i0Z8oCs2JBzdhcKXwgO1-209" value="" style="endArrow=none;html=1;rounded=0;exitX=1;exitY=0.5;exitDx=0;exitDy=0;" parent="1" edge="1">
          <mxGeometry relative="1" as="geometry">
            <mxPoint x="946" y="1219" as="sourcePoint" />
            <mxPoint x="967" y="1219" as="targetPoint" />
          </mxGeometry>
        </mxCell>
        <mxCell id="i0Z8oCs2JBzdhcKXwgO1-210" value="" style="endArrow=none;html=1;rounded=0;" parent="1" edge="1">
          <mxGeometry relative="1" as="geometry">
            <mxPoint x="967" y="1178" as="sourcePoint" />
            <mxPoint x="967" y="1138" as="targetPoint" />
          </mxGeometry>
        </mxCell>
        <mxCell id="i0Z8oCs2JBzdhcKXwgO1-211" value="" style="endArrow=none;html=1;rounded=0;" parent="1" edge="1">
          <mxGeometry relative="1" as="geometry">
            <mxPoint x="967" y="1219" as="sourcePoint" />
            <mxPoint x="967" y="1179" as="targetPoint" />
          </mxGeometry>
        </mxCell>
        <mxCell id="i0Z8oCs2JBzdhcKXwgO1-212" value="" style="endArrow=none;html=1;rounded=0;exitX=1;exitY=0.5;exitDx=0;exitDy=0;" parent="1" edge="1">
          <mxGeometry relative="1" as="geometry">
            <mxPoint x="946" y="1220" as="sourcePoint" />
            <mxPoint x="967" y="1220" as="targetPoint" />
          </mxGeometry>
        </mxCell>
        <mxCell id="i0Z8oCs2JBzdhcKXwgO1-213" value="" style="endArrow=none;html=1;rounded=0;exitX=1;exitY=0.5;exitDx=0;exitDy=0;" parent="1" edge="1">
          <mxGeometry relative="1" as="geometry">
            <mxPoint x="946" y="1261" as="sourcePoint" />
            <mxPoint x="967" y="1261" as="targetPoint" />
          </mxGeometry>
        </mxCell>
        <mxCell id="i0Z8oCs2JBzdhcKXwgO1-214" value="" style="endArrow=none;html=1;rounded=0;exitX=1;exitY=0.5;exitDx=0;exitDy=0;" parent="1" edge="1">
          <mxGeometry relative="1" as="geometry">
            <mxPoint x="946" y="1301" as="sourcePoint" />
            <mxPoint x="967" y="1301" as="targetPoint" />
          </mxGeometry>
        </mxCell>
        <mxCell id="i0Z8oCs2JBzdhcKXwgO1-215" value="" style="endArrow=none;html=1;rounded=0;" parent="1" edge="1">
          <mxGeometry relative="1" as="geometry">
            <mxPoint x="967" y="1260" as="sourcePoint" />
            <mxPoint x="967" y="1220" as="targetPoint" />
          </mxGeometry>
        </mxCell>
        <mxCell id="i0Z8oCs2JBzdhcKXwgO1-216" value="" style="endArrow=none;html=1;rounded=0;" parent="1" edge="1">
          <mxGeometry relative="1" as="geometry">
            <mxPoint x="967" y="1301" as="sourcePoint" />
            <mxPoint x="967" y="1261" as="targetPoint" />
          </mxGeometry>
        </mxCell>
        <mxCell id="i0Z8oCs2JBzdhcKXwgO1-217" value="" style="endArrow=none;html=1;rounded=0;exitX=1;exitY=0.5;exitDx=0;exitDy=0;" parent="1" edge="1">
          <mxGeometry relative="1" as="geometry">
            <mxPoint x="946" y="1301" as="sourcePoint" />
            <mxPoint x="967" y="1301" as="targetPoint" />
          </mxGeometry>
        </mxCell>
        <mxCell id="i0Z8oCs2JBzdhcKXwgO1-220" value="" style="line;strokeWidth=1;rotatable=0;dashed=0;labelPosition=right;align=left;verticalAlign=middle;spacingTop=0;spacingLeft=6;points=[];portConstraint=eastwest;direction=south;" parent="1" vertex="1">
          <mxGeometry x="962" y="1007" width="10" height="63" as="geometry" />
        </mxCell>
        <mxCell id="i0Z8oCs2JBzdhcKXwgO1-221" value="" style="endArrow=none;html=1;rounded=0;exitX=1;exitY=0.5;exitDx=0;exitDy=0;" parent="1" edge="1">
          <mxGeometry relative="1" as="geometry">
            <mxPoint x="1038" y="1397" as="sourcePoint" />
            <mxPoint x="1059" y="1397" as="targetPoint" />
          </mxGeometry>
        </mxCell>
        <mxCell id="i0Z8oCs2JBzdhcKXwgO1-222" value="" style="endArrow=none;html=1;rounded=0;exitX=1;exitY=0.5;exitDx=0;exitDy=0;" parent="1" edge="1">
          <mxGeometry relative="1" as="geometry">
            <mxPoint x="1038" y="1438" as="sourcePoint" />
            <mxPoint x="1059" y="1438" as="targetPoint" />
          </mxGeometry>
        </mxCell>
        <mxCell id="i0Z8oCs2JBzdhcKXwgO1-223" value="" style="endArrow=none;html=1;rounded=0;exitX=1;exitY=0.5;exitDx=0;exitDy=0;" parent="1" edge="1">
          <mxGeometry relative="1" as="geometry">
            <mxPoint x="1038" y="1478" as="sourcePoint" />
            <mxPoint x="1059" y="1478" as="targetPoint" />
          </mxGeometry>
        </mxCell>
        <mxCell id="i0Z8oCs2JBzdhcKXwgO1-224" value="" style="endArrow=none;html=1;rounded=0;" parent="1" edge="1">
          <mxGeometry relative="1" as="geometry">
            <mxPoint x="1039" y="1437" as="sourcePoint" />
            <mxPoint x="1039" y="1397" as="targetPoint" />
          </mxGeometry>
        </mxCell>
        <mxCell id="i0Z8oCs2JBzdhcKXwgO1-225" value="" style="endArrow=none;html=1;rounded=0;" parent="1" edge="1">
          <mxGeometry relative="1" as="geometry">
            <mxPoint x="1039" y="1478" as="sourcePoint" />
            <mxPoint x="1039" y="1438" as="targetPoint" />
          </mxGeometry>
        </mxCell>
        <mxCell id="i0Z8oCs2JBzdhcKXwgO1-226" value="" style="endArrow=none;html=1;rounded=0;exitX=1;exitY=0.5;exitDx=0;exitDy=0;" parent="1" edge="1">
          <mxGeometry relative="1" as="geometry">
            <mxPoint x="1038" y="1478" as="sourcePoint" />
            <mxPoint x="1059" y="1478" as="targetPoint" />
          </mxGeometry>
        </mxCell>
        <mxCell id="i0Z8oCs2JBzdhcKXwgO1-227" value="" style="endArrow=none;html=1;rounded=0;exitX=1;exitY=0.5;exitDx=0;exitDy=0;" parent="1" edge="1">
          <mxGeometry relative="1" as="geometry">
            <mxPoint x="1038" y="1519" as="sourcePoint" />
            <mxPoint x="1059" y="1519" as="targetPoint" />
          </mxGeometry>
        </mxCell>
        <mxCell id="i0Z8oCs2JBzdhcKXwgO1-228" value="" style="endArrow=none;html=1;rounded=0;exitX=1;exitY=0.5;exitDx=0;exitDy=0;" parent="1" edge="1">
          <mxGeometry relative="1" as="geometry">
            <mxPoint x="1038" y="1559" as="sourcePoint" />
            <mxPoint x="1059" y="1559" as="targetPoint" />
          </mxGeometry>
        </mxCell>
        <mxCell id="i0Z8oCs2JBzdhcKXwgO1-229" value="" style="endArrow=none;html=1;rounded=0;" parent="1" edge="1">
          <mxGeometry relative="1" as="geometry">
            <mxPoint x="1039" y="1518" as="sourcePoint" />
            <mxPoint x="1039" y="1478" as="targetPoint" />
          </mxGeometry>
        </mxCell>
        <mxCell id="i0Z8oCs2JBzdhcKXwgO1-230" value="" style="endArrow=none;html=1;rounded=0;" parent="1" edge="1">
          <mxGeometry relative="1" as="geometry">
            <mxPoint x="1039" y="1559" as="sourcePoint" />
            <mxPoint x="1039" y="1519" as="targetPoint" />
          </mxGeometry>
        </mxCell>
        <mxCell id="i0Z8oCs2JBzdhcKXwgO1-231" value="" style="endArrow=none;html=1;rounded=0;exitX=1;exitY=0.5;exitDx=0;exitDy=0;" parent="1" edge="1">
          <mxGeometry relative="1" as="geometry">
            <mxPoint x="1038" y="1560" as="sourcePoint" />
            <mxPoint x="1059" y="1560" as="targetPoint" />
          </mxGeometry>
        </mxCell>
        <mxCell id="i0Z8oCs2JBzdhcKXwgO1-232" value="" style="endArrow=none;html=1;rounded=0;exitX=1;exitY=0.5;exitDx=0;exitDy=0;" parent="1" edge="1">
          <mxGeometry relative="1" as="geometry">
            <mxPoint x="1038" y="1601" as="sourcePoint" />
            <mxPoint x="1059" y="1601" as="targetPoint" />
          </mxGeometry>
        </mxCell>
        <mxCell id="i0Z8oCs2JBzdhcKXwgO1-233" value="" style="endArrow=none;html=1;rounded=0;exitX=1;exitY=0.5;exitDx=0;exitDy=0;" parent="1" edge="1">
          <mxGeometry relative="1" as="geometry">
            <mxPoint x="1038" y="1641" as="sourcePoint" />
            <mxPoint x="1059" y="1641" as="targetPoint" />
          </mxGeometry>
        </mxCell>
        <mxCell id="i0Z8oCs2JBzdhcKXwgO1-234" value="" style="endArrow=none;html=1;rounded=0;" parent="1" edge="1">
          <mxGeometry relative="1" as="geometry">
            <mxPoint x="1039" y="1600" as="sourcePoint" />
            <mxPoint x="1039" y="1560" as="targetPoint" />
          </mxGeometry>
        </mxCell>
        <mxCell id="i0Z8oCs2JBzdhcKXwgO1-235" value="" style="endArrow=none;html=1;rounded=0;" parent="1" edge="1">
          <mxGeometry relative="1" as="geometry">
            <mxPoint x="1039" y="1641" as="sourcePoint" />
            <mxPoint x="1039" y="1601" as="targetPoint" />
          </mxGeometry>
        </mxCell>
        <mxCell id="i0Z8oCs2JBzdhcKXwgO1-236" value="" style="endArrow=none;html=1;rounded=0;exitX=1;exitY=0.5;exitDx=0;exitDy=0;" parent="1" edge="1">
          <mxGeometry relative="1" as="geometry">
            <mxPoint x="1038" y="1641" as="sourcePoint" />
            <mxPoint x="1059" y="1641" as="targetPoint" />
          </mxGeometry>
        </mxCell>
        <mxCell id="i0Z8oCs2JBzdhcKXwgO1-237" value="" style="endArrow=none;html=1;rounded=0;exitX=1;exitY=0.5;exitDx=0;exitDy=0;" parent="1" edge="1">
          <mxGeometry relative="1" as="geometry">
            <mxPoint x="1038" y="1682" as="sourcePoint" />
            <mxPoint x="1059" y="1682" as="targetPoint" />
          </mxGeometry>
        </mxCell>
        <mxCell id="i0Z8oCs2JBzdhcKXwgO1-238" value="" style="endArrow=none;html=1;rounded=0;" parent="1" edge="1">
          <mxGeometry relative="1" as="geometry">
            <mxPoint x="1039" y="1681" as="sourcePoint" />
            <mxPoint x="1039" y="1641" as="targetPoint" />
          </mxGeometry>
        </mxCell>
        <mxCell id="i0Z8oCs2JBzdhcKXwgO1-239" value="" style="endArrow=none;html=1;rounded=0;exitX=1;exitY=0.5;exitDx=0;exitDy=0;" parent="1" source="i0Z8oCs2JBzdhcKXwgO1-47" edge="1">
          <mxGeometry relative="1" as="geometry">
            <mxPoint x="1017" y="1397" as="sourcePoint" />
            <mxPoint x="1038" y="1397" as="targetPoint" />
          </mxGeometry>
        </mxCell>
        <mxCell id="i0Z8oCs2JBzdhcKXwgO1-240" value="" style="endArrow=none;html=1;rounded=0;exitX=1;exitY=0.5;exitDx=0;exitDy=0;" parent="1" edge="1">
          <mxGeometry relative="1" as="geometry">
            <mxPoint x="1514" y="989" as="sourcePoint" />
            <mxPoint x="1535" y="989" as="targetPoint" />
          </mxGeometry>
        </mxCell>
        <mxCell id="i0Z8oCs2JBzdhcKXwgO1-241" value="" style="endArrow=none;html=1;rounded=0;exitX=1;exitY=0.5;exitDx=0;exitDy=0;" parent="1" edge="1">
          <mxGeometry relative="1" as="geometry">
            <mxPoint x="1514" y="989" as="sourcePoint" />
            <mxPoint x="1535" y="989" as="targetPoint" />
          </mxGeometry>
        </mxCell>
        <mxCell id="i0Z8oCs2JBzdhcKXwgO1-242" value="" style="endArrow=none;html=1;rounded=0;exitX=1;exitY=0.5;exitDx=0;exitDy=0;" parent="1" edge="1">
          <mxGeometry relative="1" as="geometry">
            <mxPoint x="1514" y="1030" as="sourcePoint" />
            <mxPoint x="1535" y="1030" as="targetPoint" />
          </mxGeometry>
        </mxCell>
        <mxCell id="i0Z8oCs2JBzdhcKXwgO1-243" value="" style="endArrow=none;html=1;rounded=0;" parent="1" edge="1">
          <mxGeometry relative="1" as="geometry">
            <mxPoint x="1515" y="1029" as="sourcePoint" />
            <mxPoint x="1515" y="989" as="targetPoint" />
          </mxGeometry>
        </mxCell>
        <mxCell id="i0Z8oCs2JBzdhcKXwgO1-244" value="" style="endArrow=none;html=1;rounded=0;exitX=1;exitY=0.5;exitDx=0;exitDy=0;" parent="1" source="i0Z8oCs2JBzdhcKXwgO1-55" edge="1">
          <mxGeometry relative="1" as="geometry">
            <mxPoint x="1521" y="998" as="sourcePoint" />
            <mxPoint x="1520" y="990" as="targetPoint" />
          </mxGeometry>
        </mxCell>
        <mxCell id="i0Z8oCs2JBzdhcKXwgO1-245" value="" style="endArrow=none;html=1;rounded=0;exitX=1;exitY=0.5;exitDx=0;exitDy=0;" parent="1" edge="1">
          <mxGeometry relative="1" as="geometry">
            <mxPoint x="1234" y="1109" as="sourcePoint" />
            <mxPoint x="1255" y="1109" as="targetPoint" />
          </mxGeometry>
        </mxCell>
        <mxCell id="i0Z8oCs2JBzdhcKXwgO1-246" value="" style="endArrow=none;html=1;rounded=0;exitX=1;exitY=0.5;exitDx=0;exitDy=0;" parent="1" edge="1">
          <mxGeometry relative="1" as="geometry">
            <mxPoint x="1234" y="1149" as="sourcePoint" />
            <mxPoint x="1255" y="1149" as="targetPoint" />
          </mxGeometry>
        </mxCell>
        <mxCell id="i0Z8oCs2JBzdhcKXwgO1-247" value="" style="endArrow=none;html=1;rounded=0;" parent="1" edge="1">
          <mxGeometry relative="1" as="geometry">
            <mxPoint x="1235" y="1149" as="sourcePoint" />
            <mxPoint x="1235" y="1109" as="targetPoint" />
          </mxGeometry>
        </mxCell>
        <mxCell id="i0Z8oCs2JBzdhcKXwgO1-248" value="" style="endArrow=none;html=1;rounded=0;exitX=1;exitY=0.5;exitDx=0;exitDy=0;" parent="1" edge="1">
          <mxGeometry relative="1" as="geometry">
            <mxPoint x="1234" y="1149" as="sourcePoint" />
            <mxPoint x="1255" y="1149" as="targetPoint" />
          </mxGeometry>
        </mxCell>
        <mxCell id="i0Z8oCs2JBzdhcKXwgO1-249" value="" style="endArrow=none;html=1;rounded=0;exitX=1;exitY=0.5;exitDx=0;exitDy=0;" parent="1" edge="1">
          <mxGeometry relative="1" as="geometry">
            <mxPoint x="1234" y="1190" as="sourcePoint" />
            <mxPoint x="1255" y="1190" as="targetPoint" />
          </mxGeometry>
        </mxCell>
        <mxCell id="i0Z8oCs2JBzdhcKXwgO1-250" value="" style="endArrow=none;html=1;rounded=0;" parent="1" edge="1">
          <mxGeometry relative="1" as="geometry">
            <mxPoint x="1235" y="1189" as="sourcePoint" />
            <mxPoint x="1235" y="1149" as="targetPoint" />
          </mxGeometry>
        </mxCell>
        <mxCell id="i0Z8oCs2JBzdhcKXwgO1-251" value="" style="endArrow=none;html=1;rounded=0;exitX=1;exitY=0.5;exitDx=0;exitDy=0;" parent="1" edge="1">
          <mxGeometry relative="1" as="geometry">
            <mxPoint x="1216" y="1109" as="sourcePoint" />
            <mxPoint x="1237" y="1109" as="targetPoint" />
          </mxGeometry>
        </mxCell>
        <mxCell id="i0Z8oCs2JBzdhcKXwgO1-252" value="" style="endArrow=none;html=1;rounded=0;exitX=1;exitY=0.5;exitDx=0;exitDy=0;" parent="1" edge="1">
          <mxGeometry relative="1" as="geometry">
            <mxPoint x="1029" y="179" as="sourcePoint" />
            <mxPoint x="1050" y="179" as="targetPoint" />
          </mxGeometry>
        </mxCell>
        <mxCell id="i0Z8oCs2JBzdhcKXwgO1-253" value="" style="endArrow=none;html=1;rounded=0;exitX=1;exitY=0.5;exitDx=0;exitDy=0;" parent="1" edge="1">
          <mxGeometry relative="1" as="geometry">
            <mxPoint x="1029" y="219" as="sourcePoint" />
            <mxPoint x="1050" y="219" as="targetPoint" />
          </mxGeometry>
        </mxCell>
        <mxCell id="i0Z8oCs2JBzdhcKXwgO1-254" value="" style="endArrow=none;html=1;rounded=0;" parent="1" edge="1">
          <mxGeometry relative="1" as="geometry">
            <mxPoint x="1030" y="219" as="sourcePoint" />
            <mxPoint x="1030" y="179" as="targetPoint" />
          </mxGeometry>
        </mxCell>
        <mxCell id="i0Z8oCs2JBzdhcKXwgO1-255" value="" style="endArrow=none;html=1;rounded=0;exitX=1;exitY=0.5;exitDx=0;exitDy=0;" parent="1" edge="1">
          <mxGeometry relative="1" as="geometry">
            <mxPoint x="1029" y="219" as="sourcePoint" />
            <mxPoint x="1050" y="219" as="targetPoint" />
          </mxGeometry>
        </mxCell>
        <mxCell id="i0Z8oCs2JBzdhcKXwgO1-256" value="" style="endArrow=none;html=1;rounded=0;exitX=1;exitY=0.5;exitDx=0;exitDy=0;" parent="1" edge="1">
          <mxGeometry relative="1" as="geometry">
            <mxPoint x="1029" y="260" as="sourcePoint" />
            <mxPoint x="1050" y="260" as="targetPoint" />
          </mxGeometry>
        </mxCell>
        <mxCell id="i0Z8oCs2JBzdhcKXwgO1-257" value="" style="endArrow=none;html=1;rounded=0;" parent="1" edge="1">
          <mxGeometry relative="1" as="geometry">
            <mxPoint x="1030" y="259" as="sourcePoint" />
            <mxPoint x="1030" y="219" as="targetPoint" />
          </mxGeometry>
        </mxCell>
        <mxCell id="i0Z8oCs2JBzdhcKXwgO1-258" value="" style="endArrow=none;html=1;rounded=0;exitX=1;exitY=0.5;exitDx=0;exitDy=0;" parent="1" source="i0Z8oCs2JBzdhcKXwgO1-29" edge="1">
          <mxGeometry relative="1" as="geometry">
            <mxPoint x="1011" y="219" as="sourcePoint" />
            <mxPoint x="1032" y="219" as="targetPoint" />
          </mxGeometry>
        </mxCell>
        <mxCell id="i0Z8oCs2JBzdhcKXwgO1-259" value="" style="endArrow=none;html=1;rounded=0;exitX=1;exitY=0.5;exitDx=0;exitDy=0;" parent="1" edge="1">
          <mxGeometry relative="1" as="geometry">
            <mxPoint x="39" y="300" as="sourcePoint" />
            <mxPoint x="60" y="300" as="targetPoint" />
          </mxGeometry>
        </mxCell>
        <mxCell id="i0Z8oCs2JBzdhcKXwgO1-260" value="" style="endArrow=none;html=1;rounded=0;exitX=1;exitY=0.5;exitDx=0;exitDy=0;" parent="1" edge="1">
          <mxGeometry relative="1" as="geometry">
            <mxPoint x="39" y="341" as="sourcePoint" />
            <mxPoint x="60" y="341" as="targetPoint" />
          </mxGeometry>
        </mxCell>
        <mxCell id="i0Z8oCs2JBzdhcKXwgO1-261" value="" style="endArrow=none;html=1;rounded=0;exitX=1;exitY=0.5;exitDx=0;exitDy=0;" parent="1" edge="1">
          <mxGeometry relative="1" as="geometry">
            <mxPoint x="39" y="381" as="sourcePoint" />
            <mxPoint x="60" y="381" as="targetPoint" />
          </mxGeometry>
        </mxCell>
        <mxCell id="i0Z8oCs2JBzdhcKXwgO1-262" value="" style="endArrow=none;html=1;rounded=0;" parent="1" edge="1">
          <mxGeometry relative="1" as="geometry">
            <mxPoint x="60" y="340" as="sourcePoint" />
            <mxPoint x="60" y="300" as="targetPoint" />
          </mxGeometry>
        </mxCell>
        <mxCell id="i0Z8oCs2JBzdhcKXwgO1-263" value="" style="endArrow=none;html=1;rounded=0;" parent="1" edge="1">
          <mxGeometry relative="1" as="geometry">
            <mxPoint x="60" y="381" as="sourcePoint" />
            <mxPoint x="60" y="341" as="targetPoint" />
          </mxGeometry>
        </mxCell>
        <mxCell id="i0Z8oCs2JBzdhcKXwgO1-265" value="" style="endArrow=none;html=1;rounded=0;exitX=1;exitY=0.5;exitDx=0;exitDy=0;" parent="1" edge="1">
          <mxGeometry relative="1" as="geometry">
            <mxPoint x="39" y="421" as="sourcePoint" />
            <mxPoint x="60" y="421" as="targetPoint" />
          </mxGeometry>
        </mxCell>
        <mxCell id="i0Z8oCs2JBzdhcKXwgO1-266" value="" style="endArrow=none;html=1;rounded=0;exitX=1;exitY=0.5;exitDx=0;exitDy=0;" parent="1" edge="1">
          <mxGeometry relative="1" as="geometry">
            <mxPoint x="39" y="461" as="sourcePoint" />
            <mxPoint x="60" y="461" as="targetPoint" />
          </mxGeometry>
        </mxCell>
        <mxCell id="i0Z8oCs2JBzdhcKXwgO1-267" value="" style="endArrow=none;html=1;rounded=0;" parent="1" edge="1">
          <mxGeometry relative="1" as="geometry">
            <mxPoint x="60" y="420" as="sourcePoint" />
            <mxPoint x="60" y="380" as="targetPoint" />
          </mxGeometry>
        </mxCell>
        <mxCell id="i0Z8oCs2JBzdhcKXwgO1-268" value="" style="endArrow=none;html=1;rounded=0;" parent="1" edge="1">
          <mxGeometry relative="1" as="geometry">
            <mxPoint x="60" y="461" as="sourcePoint" />
            <mxPoint x="60" y="421" as="targetPoint" />
          </mxGeometry>
        </mxCell>
        <mxCell id="i0Z8oCs2JBzdhcKXwgO1-269" value="" style="endArrow=none;html=1;rounded=0;" parent="1" edge="1">
          <mxGeometry relative="1" as="geometry">
            <mxPoint x="60" y="380" as="sourcePoint" />
            <mxPoint x="111" y="380" as="targetPoint" />
          </mxGeometry>
        </mxCell>
        <mxCell id="i0Z8oCs2JBzdhcKXwgO1-270" value="" style="endArrow=none;html=1;rounded=0;exitX=1;exitY=0.5;exitDx=0;exitDy=0;" parent="1" edge="1">
          <mxGeometry relative="1" as="geometry">
            <mxPoint x="379" y="360" as="sourcePoint" />
            <mxPoint x="400" y="360" as="targetPoint" />
          </mxGeometry>
        </mxCell>
        <mxCell id="i0Z8oCs2JBzdhcKXwgO1-271" value="" style="endArrow=none;html=1;rounded=0;exitX=1;exitY=0.5;exitDx=0;exitDy=0;" parent="1" edge="1">
          <mxGeometry relative="1" as="geometry">
            <mxPoint x="379" y="401" as="sourcePoint" />
            <mxPoint x="400" y="401" as="targetPoint" />
          </mxGeometry>
        </mxCell>
        <mxCell id="i0Z8oCs2JBzdhcKXwgO1-272" value="" style="endArrow=none;html=1;rounded=0;" parent="1" edge="1">
          <mxGeometry relative="1" as="geometry">
            <mxPoint x="400" y="400" as="sourcePoint" />
            <mxPoint x="400" y="360" as="targetPoint" />
          </mxGeometry>
        </mxCell>
        <mxCell id="i0Z8oCs2JBzdhcKXwgO1-273" value="" style="endArrow=none;html=1;rounded=0;exitX=1;exitY=0.5;exitDx=0;exitDy=0;" parent="1" edge="1">
          <mxGeometry relative="1" as="geometry">
            <mxPoint x="400" y="382" as="sourcePoint" />
            <mxPoint x="418" y="382" as="targetPoint" />
          </mxGeometry>
        </mxCell>
        <mxCell id="i0Z8oCs2JBzdhcKXwgO1-274" value="" style="line;strokeWidth=1;rotatable=0;dashed=0;labelPosition=right;align=left;verticalAlign=middle;spacingTop=0;spacingLeft=6;points=[];portConstraint=eastwest;direction=south;" parent="1" vertex="1">
          <mxGeometry x="573.75" y="40" width="10" height="60" as="geometry" />
        </mxCell>
        <mxCell id="i0Z8oCs2JBzdhcKXwgO1-275" value="" style="line;strokeWidth=1;rotatable=0;dashed=0;labelPosition=right;align=left;verticalAlign=middle;spacingTop=0;spacingLeft=6;points=[];portConstraint=eastwest;" parent="1" vertex="1">
          <mxGeometry x="470" y="95" width="110" height="10" as="geometry" />
        </mxCell>
        <mxCell id="i0Z8oCs2JBzdhcKXwgO1-276" value="" style="line;strokeWidth=1;rotatable=0;dashed=0;labelPosition=right;align=left;verticalAlign=middle;spacingTop=0;spacingLeft=6;points=[];portConstraint=eastwest;direction=south;" parent="1" vertex="1">
          <mxGeometry x="463" y="100" width="10" height="18" as="geometry" />
        </mxCell>
        <mxCell id="i0Z8oCs2JBzdhcKXwgO1-277" value="" style="line;strokeWidth=1;rotatable=0;dashed=0;labelPosition=right;align=left;verticalAlign=middle;spacingTop=0;spacingLeft=6;points=[];portConstraint=eastwest;direction=south;" parent="1" vertex="1">
          <mxGeometry x="942" y="100" width="11" height="18" as="geometry" />
        </mxCell>
        <mxCell id="i0Z8oCs2JBzdhcKXwgO1-278" value="" style="line;strokeWidth=1;rotatable=0;dashed=0;labelPosition=right;align=left;verticalAlign=middle;spacingTop=0;spacingLeft=6;points=[];portConstraint=eastwest;" parent="1" vertex="1">
          <mxGeometry x="580" y="95" width="369" height="10" as="geometry" />
        </mxCell>
        <mxCell id="i0Z8oCs2JBzdhcKXwgO1-279" value="" style="line;strokeWidth=1;rotatable=0;dashed=0;labelPosition=right;align=left;verticalAlign=middle;spacingTop=0;spacingLeft=6;points=[];portConstraint=eastwest;direction=south;" parent="1" vertex="1">
          <mxGeometry x="462.75" y="149" width="10" height="50" as="geometry" />
        </mxCell>
        <mxCell id="i0Z8oCs2JBzdhcKXwgO1-280" value="" style="line;strokeWidth=1;rotatable=0;dashed=0;labelPosition=right;align=left;verticalAlign=middle;spacingTop=0;spacingLeft=6;points=[];portConstraint=eastwest;direction=south;" parent="1" vertex="1">
          <mxGeometry x="941.75" y="149" width="10" height="50" as="geometry" />
        </mxCell>
        <mxCell id="i0Z8oCs2JBzdhcKXwgO1-283" value="" style="line;strokeWidth=1;rotatable=0;dashed=0;labelPosition=right;align=left;verticalAlign=middle;spacingTop=0;spacingLeft=6;points=[];portConstraint=eastwest;" parent="1" vertex="1">
          <mxGeometry x="520" y="533" width="299" height="19" as="geometry" />
        </mxCell>
        <mxCell id="i0Z8oCs2JBzdhcKXwgO1-284" value="" style="line;strokeWidth=1;rotatable=0;dashed=0;labelPosition=right;align=left;verticalAlign=middle;spacingTop=0;spacingLeft=6;points=[];portConstraint=eastwest;" parent="1" vertex="1">
          <mxGeometry x="850" y="533" width="50" height="19" as="geometry" />
        </mxCell>
        <mxCell id="i0Z8oCs2JBzdhcKXwgO1-285" value="" style="line;strokeWidth=1;rotatable=0;dashed=0;labelPosition=right;align=left;verticalAlign=middle;spacingTop=0;spacingLeft=6;points=[];portConstraint=eastwest;" parent="1" vertex="1">
          <mxGeometry x="1000" y="529" width="51" height="19" as="geometry" />
        </mxCell>
        <mxCell id="i0Z8oCs2JBzdhcKXwgO1-286" value="" style="line;strokeWidth=1;rotatable=0;dashed=0;labelPosition=right;align=left;verticalAlign=middle;spacingTop=0;spacingLeft=6;points=[];portConstraint=eastwest;direction=south;" parent="1" vertex="1">
          <mxGeometry x="1015" y="539" width="10" height="246" as="geometry" />
        </mxCell>
        <mxCell id="i0Z8oCs2JBzdhcKXwgO1-287" value="" style="line;strokeWidth=1;rotatable=0;dashed=0;labelPosition=right;align=left;verticalAlign=middle;spacingTop=0;spacingLeft=6;points=[];portConstraint=eastwest;" parent="1" vertex="1">
          <mxGeometry x="1020" y="651" width="30" height="20" as="geometry" />
        </mxCell>
        <mxCell id="i0Z8oCs2JBzdhcKXwgO1-288" value="" style="line;strokeWidth=1;rotatable=0;dashed=0;labelPosition=right;align=left;verticalAlign=middle;spacingTop=0;spacingLeft=6;points=[];portConstraint=eastwest;" parent="1" vertex="1">
          <mxGeometry x="1019" y="774" width="30" height="20" as="geometry" />
        </mxCell>
        <mxCell id="i0Z8oCs2JBzdhcKXwgO1-289" value="" style="line;strokeWidth=1;rotatable=0;dashed=0;labelPosition=right;align=left;verticalAlign=middle;spacingTop=0;spacingLeft=6;points=[];portConstraint=eastwest;" parent="1" vertex="1">
          <mxGeometry x="1080" y="529" width="41" height="19" as="geometry" />
        </mxCell>
        <mxCell id="i0Z8oCs2JBzdhcKXwgO1-290" value="" style="line;strokeWidth=1;rotatable=0;dashed=0;labelPosition=right;align=left;verticalAlign=middle;spacingTop=0;spacingLeft=6;points=[];portConstraint=eastwest;" parent="1" vertex="1">
          <mxGeometry x="1080" y="649" width="41" height="20" as="geometry" />
        </mxCell>
        <mxCell id="i0Z8oCs2JBzdhcKXwgO1-291" value="" style="line;strokeWidth=1;rotatable=0;dashed=0;labelPosition=right;align=left;verticalAlign=middle;spacingTop=0;spacingLeft=6;points=[];portConstraint=eastwest;" parent="1" vertex="1">
          <mxGeometry x="1080" y="773" width="41" height="20" as="geometry" />
        </mxCell>
        <mxCell id="i0Z8oCs2JBzdhcKXwgO1-292" value="" style="endArrow=none;html=1;rounded=0;exitX=1;exitY=0.5;exitDx=0;exitDy=0;" parent="1" edge="1">
          <mxGeometry relative="1" as="geometry">
            <mxPoint x="1238" y="777" as="sourcePoint" />
            <mxPoint x="1259" y="777" as="targetPoint" />
          </mxGeometry>
        </mxCell>
        <mxCell id="i0Z8oCs2JBzdhcKXwgO1-293" value="" style="endArrow=none;html=1;rounded=0;exitX=1;exitY=0.5;exitDx=0;exitDy=0;" parent="1" edge="1">
          <mxGeometry relative="1" as="geometry">
            <mxPoint x="1238" y="817" as="sourcePoint" />
            <mxPoint x="1259" y="817" as="targetPoint" />
          </mxGeometry>
        </mxCell>
        <mxCell id="i0Z8oCs2JBzdhcKXwgO1-294" value="" style="endArrow=none;html=1;rounded=0;" parent="1" edge="1">
          <mxGeometry relative="1" as="geometry">
            <mxPoint x="1239" y="817" as="sourcePoint" />
            <mxPoint x="1239" y="777" as="targetPoint" />
          </mxGeometry>
        </mxCell>
        <mxCell id="i0Z8oCs2JBzdhcKXwgO1-295" value="" style="endArrow=none;html=1;rounded=0;exitX=1;exitY=0.5;exitDx=0;exitDy=0;" parent="1" edge="1">
          <mxGeometry relative="1" as="geometry">
            <mxPoint x="1238" y="817" as="sourcePoint" />
            <mxPoint x="1259" y="817" as="targetPoint" />
          </mxGeometry>
        </mxCell>
        <mxCell id="i0Z8oCs2JBzdhcKXwgO1-296" value="" style="endArrow=none;html=1;rounded=0;exitX=1;exitY=0.5;exitDx=0;exitDy=0;" parent="1" edge="1">
          <mxGeometry relative="1" as="geometry">
            <mxPoint x="1220" y="777" as="sourcePoint" />
            <mxPoint x="1241" y="777" as="targetPoint" />
          </mxGeometry>
        </mxCell>
        <mxCell id="i0Z8oCs2JBzdhcKXwgO1-297" value="" style="endArrow=none;html=1;rounded=0;exitX=1;exitY=0.5;exitDx=0;exitDy=0;" parent="1" edge="1">
          <mxGeometry relative="1" as="geometry">
            <mxPoint x="1238" y="657" as="sourcePoint" />
            <mxPoint x="1259" y="657" as="targetPoint" />
          </mxGeometry>
        </mxCell>
        <mxCell id="i0Z8oCs2JBzdhcKXwgO1-298" value="" style="endArrow=none;html=1;rounded=0;exitX=1;exitY=0.5;exitDx=0;exitDy=0;" parent="1" edge="1">
          <mxGeometry relative="1" as="geometry">
            <mxPoint x="1238" y="697" as="sourcePoint" />
            <mxPoint x="1259" y="697" as="targetPoint" />
          </mxGeometry>
        </mxCell>
        <mxCell id="i0Z8oCs2JBzdhcKXwgO1-299" value="" style="endArrow=none;html=1;rounded=0;" parent="1" edge="1">
          <mxGeometry relative="1" as="geometry">
            <mxPoint x="1239" y="697" as="sourcePoint" />
            <mxPoint x="1239" y="657" as="targetPoint" />
          </mxGeometry>
        </mxCell>
        <mxCell id="i0Z8oCs2JBzdhcKXwgO1-300" value="" style="endArrow=none;html=1;rounded=0;exitX=1;exitY=0.5;exitDx=0;exitDy=0;" parent="1" edge="1">
          <mxGeometry relative="1" as="geometry">
            <mxPoint x="1238" y="697" as="sourcePoint" />
            <mxPoint x="1259" y="697" as="targetPoint" />
          </mxGeometry>
        </mxCell>
        <mxCell id="i0Z8oCs2JBzdhcKXwgO1-301" value="" style="endArrow=none;html=1;rounded=0;exitX=1;exitY=0.5;exitDx=0;exitDy=0;" parent="1" edge="1">
          <mxGeometry relative="1" as="geometry">
            <mxPoint x="1220" y="657" as="sourcePoint" />
            <mxPoint x="1241" y="657" as="targetPoint" />
          </mxGeometry>
        </mxCell>
        <mxCell id="i0Z8oCs2JBzdhcKXwgO1-302" value="" style="endArrow=none;html=1;rounded=0;exitX=1;exitY=0.5;exitDx=0;exitDy=0;" parent="1" edge="1">
          <mxGeometry relative="1" as="geometry">
            <mxPoint x="1238" y="537" as="sourcePoint" />
            <mxPoint x="1259" y="537" as="targetPoint" />
          </mxGeometry>
        </mxCell>
        <mxCell id="i0Z8oCs2JBzdhcKXwgO1-303" value="" style="endArrow=none;html=1;rounded=0;exitX=1;exitY=0.5;exitDx=0;exitDy=0;" parent="1" edge="1">
          <mxGeometry relative="1" as="geometry">
            <mxPoint x="1238" y="577" as="sourcePoint" />
            <mxPoint x="1259" y="577" as="targetPoint" />
          </mxGeometry>
        </mxCell>
        <mxCell id="i0Z8oCs2JBzdhcKXwgO1-304" value="" style="endArrow=none;html=1;rounded=0;" parent="1" edge="1">
          <mxGeometry relative="1" as="geometry">
            <mxPoint x="1239" y="577" as="sourcePoint" />
            <mxPoint x="1239" y="537" as="targetPoint" />
          </mxGeometry>
        </mxCell>
        <mxCell id="i0Z8oCs2JBzdhcKXwgO1-305" value="" style="endArrow=none;html=1;rounded=0;exitX=1;exitY=0.5;exitDx=0;exitDy=0;" parent="1" edge="1">
          <mxGeometry relative="1" as="geometry">
            <mxPoint x="1238" y="577" as="sourcePoint" />
            <mxPoint x="1259" y="577" as="targetPoint" />
          </mxGeometry>
        </mxCell>
        <mxCell id="i0Z8oCs2JBzdhcKXwgO1-306" value="" style="endArrow=none;html=1;rounded=0;exitX=1;exitY=0.5;exitDx=0;exitDy=0;" parent="1" edge="1">
          <mxGeometry relative="1" as="geometry">
            <mxPoint x="1220" y="537" as="sourcePoint" />
            <mxPoint x="1241" y="537" as="targetPoint" />
          </mxGeometry>
        </mxCell>
        <mxCell id="i0Z8oCs2JBzdhcKXwgO1-307" value="" style="line;strokeWidth=1;rotatable=0;dashed=0;labelPosition=right;align=left;verticalAlign=middle;spacingTop=0;spacingLeft=6;points=[];portConstraint=eastwest;direction=south;" parent="1" vertex="1">
          <mxGeometry x="791" y="542" width="10" height="858" as="geometry" />
        </mxCell>
        <mxCell id="i0Z8oCs2JBzdhcKXwgO1-310" value="" style="line;strokeWidth=1;rotatable=0;dashed=0;labelPosition=right;align=left;verticalAlign=middle;spacingTop=0;spacingLeft=6;points=[];portConstraint=eastwest;" parent="1" vertex="1">
          <mxGeometry x="796" y="985" width="23" height="10" as="geometry" />
        </mxCell>
        <mxCell id="i0Z8oCs2JBzdhcKXwgO1-311" value="" style="line;strokeWidth=1;rotatable=0;dashed=0;labelPosition=right;align=left;verticalAlign=middle;spacingTop=0;spacingLeft=6;points=[];portConstraint=eastwest;" parent="1" vertex="1">
          <mxGeometry x="796" y="1396" width="23" height="10" as="geometry" />
        </mxCell>
        <mxCell id="i0Z8oCs2JBzdhcKXwgO1-312" value="" style="line;strokeWidth=1;rotatable=0;dashed=0;labelPosition=right;align=left;verticalAlign=middle;spacingTop=0;spacingLeft=6;points=[];portConstraint=eastwest;" parent="1" vertex="1">
          <mxGeometry x="1076" y="979" width="41" height="20" as="geometry" />
        </mxCell>
        <mxCell id="i0Z8oCs2JBzdhcKXwgO1-313" value="" style="line;strokeWidth=1;rotatable=0;dashed=0;labelPosition=right;align=left;verticalAlign=middle;spacingTop=0;spacingLeft=6;points=[];portConstraint=eastwest;" parent="1" vertex="1">
          <mxGeometry x="1076" y="1100" width="41" height="20" as="geometry" />
        </mxCell>
        <mxCell id="i0Z8oCs2JBzdhcKXwgO1-314" value="" style="line;strokeWidth=1;rotatable=0;dashed=0;labelPosition=right;align=left;verticalAlign=middle;spacingTop=0;spacingLeft=6;points=[];portConstraint=eastwest;" parent="1" vertex="1">
          <mxGeometry x="850" y="1388" width="48" height="20" as="geometry" />
        </mxCell>
        <mxCell id="i0Z8oCs2JBzdhcKXwgO1-315" value="" style="line;strokeWidth=1;rotatable=0;dashed=0;labelPosition=right;align=left;verticalAlign=middle;spacingTop=0;spacingLeft=6;points=[];portConstraint=eastwest;" parent="1" vertex="1">
          <mxGeometry x="850" y="980" width="43" height="20" as="geometry" />
        </mxCell>
        <mxCell id="i0Z8oCs2JBzdhcKXwgO1-316" value="" style="line;strokeWidth=1;rotatable=0;dashed=0;labelPosition=right;align=left;verticalAlign=middle;spacingTop=0;spacingLeft=6;points=[];portConstraint=eastwest;" parent="1" vertex="1">
          <mxGeometry x="994" y="980" width="52" height="20" as="geometry" />
        </mxCell>
        <mxCell id="i0Z8oCs2JBzdhcKXwgO1-317" value="" style="line;strokeWidth=1;rotatable=0;dashed=0;labelPosition=right;align=left;verticalAlign=middle;spacingTop=0;spacingLeft=6;points=[];portConstraint=eastwest;direction=south;" parent="1" vertex="1">
          <mxGeometry x="1010" y="989" width="20" height="121" as="geometry" />
        </mxCell>
        <mxCell id="i0Z8oCs2JBzdhcKXwgO1-318" value="" style="line;strokeWidth=1;rotatable=0;dashed=0;labelPosition=right;align=left;verticalAlign=middle;spacingTop=0;spacingLeft=6;points=[];portConstraint=eastwest;" parent="1" vertex="1">
          <mxGeometry x="1020" y="1105" width="26" height="10" as="geometry" />
        </mxCell>
        <mxCell id="i0Z8oCs2JBzdhcKXwgO1-320" value="" style="endArrow=none;html=1;rounded=0;exitX=1;exitY=0.5;exitDx=0;exitDy=0;" parent="1" edge="1">
          <mxGeometry relative="1" as="geometry">
            <mxPoint x="678" y="297" as="sourcePoint" />
            <mxPoint x="699" y="297" as="targetPoint" />
          </mxGeometry>
        </mxCell>
        <mxCell id="i0Z8oCs2JBzdhcKXwgO1-321" value="" style="endArrow=none;html=1;rounded=0;exitX=1;exitY=0.5;exitDx=0;exitDy=0;" parent="1" edge="1">
          <mxGeometry relative="1" as="geometry">
            <mxPoint x="678" y="338" as="sourcePoint" />
            <mxPoint x="699" y="338" as="targetPoint" />
          </mxGeometry>
        </mxCell>
        <mxCell id="i0Z8oCs2JBzdhcKXwgO1-322" value="" style="endArrow=none;html=1;rounded=0;exitX=1;exitY=0.5;exitDx=0;exitDy=0;" parent="1" edge="1">
          <mxGeometry relative="1" as="geometry">
            <mxPoint x="678" y="378" as="sourcePoint" />
            <mxPoint x="699" y="378" as="targetPoint" />
          </mxGeometry>
        </mxCell>
        <mxCell id="i0Z8oCs2JBzdhcKXwgO1-323" value="" style="endArrow=none;html=1;rounded=0;" parent="1" edge="1">
          <mxGeometry relative="1" as="geometry">
            <mxPoint x="679" y="337" as="sourcePoint" />
            <mxPoint x="679" y="297" as="targetPoint" />
          </mxGeometry>
        </mxCell>
        <mxCell id="i0Z8oCs2JBzdhcKXwgO1-324" value="" style="endArrow=none;html=1;rounded=0;" parent="1" edge="1">
          <mxGeometry relative="1" as="geometry">
            <mxPoint x="679" y="378" as="sourcePoint" />
            <mxPoint x="679" y="338" as="targetPoint" />
          </mxGeometry>
        </mxCell>
        <mxCell id="i0Z8oCs2JBzdhcKXwgO1-325" value="" style="endArrow=none;html=1;rounded=0;exitX=1;exitY=0.5;exitDx=0;exitDy=0;" parent="1" edge="1">
          <mxGeometry relative="1" as="geometry">
            <mxPoint x="678" y="378" as="sourcePoint" />
            <mxPoint x="699" y="378" as="targetPoint" />
          </mxGeometry>
        </mxCell>
        <mxCell id="i0Z8oCs2JBzdhcKXwgO1-326" value="" style="endArrow=none;html=1;rounded=0;exitX=1;exitY=0.5;exitDx=0;exitDy=0;" parent="1" edge="1">
          <mxGeometry relative="1" as="geometry">
            <mxPoint x="678" y="419" as="sourcePoint" />
            <mxPoint x="699" y="419" as="targetPoint" />
          </mxGeometry>
        </mxCell>
        <mxCell id="i0Z8oCs2JBzdhcKXwgO1-327" value="" style="endArrow=none;html=1;rounded=0;exitX=1;exitY=0.5;exitDx=0;exitDy=0;" parent="1" edge="1">
          <mxGeometry relative="1" as="geometry">
            <mxPoint x="678" y="459" as="sourcePoint" />
            <mxPoint x="699" y="459" as="targetPoint" />
          </mxGeometry>
        </mxCell>
        <mxCell id="i0Z8oCs2JBzdhcKXwgO1-328" value="" style="endArrow=none;html=1;rounded=0;" parent="1" edge="1">
          <mxGeometry relative="1" as="geometry">
            <mxPoint x="679" y="418" as="sourcePoint" />
            <mxPoint x="679" y="378" as="targetPoint" />
          </mxGeometry>
        </mxCell>
        <mxCell id="i0Z8oCs2JBzdhcKXwgO1-329" value="" style="endArrow=none;html=1;rounded=0;" parent="1" edge="1">
          <mxGeometry relative="1" as="geometry">
            <mxPoint x="679" y="459" as="sourcePoint" />
            <mxPoint x="679" y="419" as="targetPoint" />
          </mxGeometry>
        </mxCell>
        <mxCell id="i0Z8oCs2JBzdhcKXwgO1-330" value="" style="endArrow=none;html=1;rounded=0;exitX=1;exitY=0.5;exitDx=0;exitDy=0;" parent="1" edge="1">
          <mxGeometry relative="1" as="geometry">
            <mxPoint x="678" y="460" as="sourcePoint" />
            <mxPoint x="699" y="460" as="targetPoint" />
          </mxGeometry>
        </mxCell>
        <mxCell id="i0Z8oCs2JBzdhcKXwgO1-333" value="" style="endArrow=none;html=1;rounded=0;exitX=1;exitY=0.5;exitDx=0;exitDy=0;" parent="1" edge="1">
          <mxGeometry relative="1" as="geometry">
            <mxPoint x="659" y="378" as="sourcePoint" />
            <mxPoint x="680" y="378" as="targetPoint" />
          </mxGeometry>
        </mxCell>
        <mxCell id="i0Z8oCs2JBzdhcKXwgO1-359" value="" style="triangle;whiteSpace=wrap;html=1;gradientColor=none;fillColor=#FFFFFF;strokeColor=none;direction=north;" parent="1" vertex="1">
          <mxGeometry x="941" y="404" width="12.75" height="5" as="geometry" />
        </mxCell>
        <mxCell id="i0Z8oCs2JBzdhcKXwgO1-369" value="" style="triangle;whiteSpace=wrap;html=1;gradientColor=none;fillColor=#FFFFFF;strokeColor=none;direction=north;" parent="1" vertex="1">
          <mxGeometry x="881" y="404" width="12.75" height="5" as="geometry" />
        </mxCell>
        <mxCell id="i0Z8oCs2JBzdhcKXwgO1-375" value="" style="triangle;whiteSpace=wrap;html=1;gradientColor=none;fillColor=#FFFFFF;strokeColor=none;direction=north;" parent="1" vertex="1">
          <mxGeometry x="462" y="324" width="12.75" height="5" as="geometry" />
        </mxCell>
        <mxCell id="i0Z8oCs2JBzdhcKXwgO1-382" value="" style="triangle;whiteSpace=wrap;html=1;gradientColor=none;fillColor=#FFFFFF;strokeColor=none;direction=west;" parent="1" vertex="1">
          <mxGeometry x="1362.875" y="981.125" width="5" height="12.75" as="geometry" />
        </mxCell>
        <mxCell id="i0Z8oCs2JBzdhcKXwgO1-389" value="" style="triangle;whiteSpace=wrap;html=1;gradientColor=none;fillColor=#FFFFFF;strokeColor=none;direction=north;" parent="1" vertex="1">
          <mxGeometry x="156" y="250" width="12.75" height="5" as="geometry" />
        </mxCell>
        <mxCell id="i0Z8oCs2JBzdhcKXwgO1-393" value="" style="triangle;whiteSpace=wrap;html=1;gradientColor=none;fillColor=#FFFFFF;strokeColor=none;direction=south;" parent="1" vertex="1">
          <mxGeometry x="157" y="508" width="12.75" height="5" as="geometry" />
        </mxCell>
        <mxCell id="i0Z8oCs2JBzdhcKXwgO1-395" value="" style="triangle;whiteSpace=wrap;html=1;gradientColor=none;fillColor=#FFFFFF;strokeColor=none;direction=north;" parent="1" vertex="1">
          <mxGeometry x="572" y="-43" width="12.75" height="5" as="geometry" />
        </mxCell>
        <mxCell id="i0Z8oCs2JBzdhcKXwgO1-400" style="edgeStyle=orthogonalEdgeStyle;rounded=0;orthogonalLoop=1;jettySize=auto;html=1;exitX=0.5;exitY=0;exitDx=0;exitDy=0;entryX=0.5;entryY=1;entryDx=0;entryDy=0;shape=link;" parent="1" source="i0Z8oCs2JBzdhcKXwgO1-396" target="i0Z8oCs2JBzdhcKXwgO1-64" edge="1">
          <mxGeometry relative="1" as="geometry" />
        </mxCell>
        <mxCell id="i0Z8oCs2JBzdhcKXwgO1-407" value="1..1" style="edgeLabel;html=1;align=center;verticalAlign=middle;resizable=0;points=[];" parent="i0Z8oCs2JBzdhcKXwgO1-400" vertex="1" connectable="0">
          <mxGeometry x="0.1577" y="1" relative="1" as="geometry">
            <mxPoint as="offset" />
          </mxGeometry>
        </mxCell>
        <mxCell id="i0Z8oCs2JBzdhcKXwgO1-401" style="edgeStyle=orthogonalEdgeStyle;rounded=0;orthogonalLoop=1;jettySize=auto;html=1;exitX=1;exitY=0.25;exitDx=0;exitDy=0;entryX=0.5;entryY=1;entryDx=0;entryDy=0;endArrow=classic;startFill=0;endFill=1;" parent="1" source="i0Z8oCs2JBzdhcKXwgO1-39" target="i0Z8oCs2JBzdhcKXwgO1-396" edge="1">
          <mxGeometry relative="1" as="geometry" />
        </mxCell>
        <mxCell id="i0Z8oCs2JBzdhcKXwgO1-406" value="0..1" style="edgeLabel;html=1;align=center;verticalAlign=middle;resizable=0;points=[];" parent="i0Z8oCs2JBzdhcKXwgO1-401" vertex="1" connectable="0">
          <mxGeometry x="0.6078" y="1" relative="1" as="geometry">
            <mxPoint as="offset" />
          </mxGeometry>
        </mxCell>
        <mxCell id="i0Z8oCs2JBzdhcKXwgO1-396" value="has" style="shape=rhombus;perimeter=rhombusPerimeter;whiteSpace=wrap;html=1;align=center;" parent="1" vertex="1">
          <mxGeometry x="564" y="429" width="90" height="50" as="geometry" />
        </mxCell>
        <mxCell id="i0Z8oCs2JBzdhcKXwgO1-398" style="edgeStyle=orthogonalEdgeStyle;rounded=0;orthogonalLoop=1;jettySize=auto;html=1;exitX=0.5;exitY=0;exitDx=0;exitDy=0;entryX=1;entryY=0.5;entryDx=0;entryDy=0;endArrow=none;startFill=0;" parent="1" source="i0Z8oCs2JBzdhcKXwgO1-397" target="i0Z8oCs2JBzdhcKXwgO1-27" edge="1">
          <mxGeometry relative="1" as="geometry" />
        </mxCell>
        <mxCell id="i0Z8oCs2JBzdhcKXwgO1-409" value="0..N" style="edgeLabel;html=1;align=center;verticalAlign=middle;resizable=0;points=[];" parent="i0Z8oCs2JBzdhcKXwgO1-398" vertex="1" connectable="0">
          <mxGeometry x="-0.6972" y="1" relative="1" as="geometry">
            <mxPoint as="offset" />
          </mxGeometry>
        </mxCell>
        <mxCell id="i0Z8oCs2JBzdhcKXwgO1-397" value="writes" style="shape=rhombus;perimeter=rhombusPerimeter;whiteSpace=wrap;html=1;align=center;" parent="1" vertex="1">
          <mxGeometry x="564" y="274" width="90" height="50" as="geometry" />
        </mxCell>
        <mxCell id="i0Z8oCs2JBzdhcKXwgO1-403" value="" style="triangle;whiteSpace=wrap;html=1;gradientColor=none;fillColor=#FFFFFF;strokeColor=none;direction=north;" parent="1" vertex="1">
          <mxGeometry x="603" y="321" width="12.75" height="5" as="geometry" />
        </mxCell>
        <mxCell id="i0Z8oCs2JBzdhcKXwgO1-405" value="" style="triangle;whiteSpace=wrap;html=1;gradientColor=none;fillColor=#FFFFFF;strokeColor=none;direction=south;" parent="1" vertex="1">
          <mxGeometry x="602" y="427" width="12.75" height="5" as="geometry" />
        </mxCell>
        <mxCell id="txjczRtoB2IqyOT99iJY-1" value="policies" style="ellipse;whiteSpace=wrap;html=1;align=center;" vertex="1" parent="1">
          <mxGeometry x="1055.25" y="1037" width="100" height="40" as="geometry" />
        </mxCell>
        <mxCell id="txjczRtoB2IqyOT99iJY-2" value="" style="endArrow=none;html=1;rounded=0;exitX=1;exitY=0.5;exitDx=0;exitDy=0;" edge="1" parent="1">
          <mxGeometry relative="1" as="geometry">
            <mxPoint x="1156" y="1057" as="sourcePoint" />
            <mxPoint x="1177" y="1057" as="targetPoint" />
          </mxGeometry>
        </mxCell>
        <mxCell id="txjczRtoB2IqyOT99iJY-3" value="" style="line;strokeWidth=1;rotatable=0;dashed=0;labelPosition=right;align=left;verticalAlign=middle;spacingTop=0;spacingLeft=6;points=[];portConstraint=eastwest;direction=south;" vertex="1" parent="1">
          <mxGeometry x="1170" y="1009" width="14" height="48" as="geometry" />
        </mxCell>
      </root>
    </mxGraphModel>
  </diagram>
</mxfile>
